<svg width="861" height="172" viewBox="0 0 861 172" fill="none" xmlns="http://www.w3.org/2000/svg">
<g filter="url(#filter0_d_252_532)">
<path fill-rule="evenodd" clip-rule="evenodd" d="M75.3761 18.1267C63.3985 24.0763 58.3741 26.577 54.6972 28.4193C53.2451 29.147 49.9932 30.7576 47.4708 31.9984L42.8847 34.2544L42.8764 63.5013L42.8681 92.7479L44.3151 93.4586C45.8508 94.2157 47.3851 94.9752 48.9175 95.7372C50.653 96.5998 52.1721 97.3053 52.2937 97.3053C52.4149 97.3053 52.5144 84.2216 52.5144 68.2302V39.1551L55.615 37.64C61.2942 34.8645 86.2618 22.4465 87.2411 21.9105C87.7716 21.6198 89.8453 20.5915 91.8495 19.6252C93.8535 18.6589 95.4914 17.8149 95.4892 17.7496C95.4873 17.6843 94.4675 17.1222 93.2237 16.5007C91.6869 15.732 90.1523 14.9602 88.6197 14.1853C87.3317 13.5334 86.1472 13 85.9876 13C85.828 13 81.0528 15.3071 75.3761 18.1267ZM98.9544 21.7651C95.891 23.3289 90.4365 26.0533 84.8984 28.7858C82.3215 30.057 80.089 31.1788 79.9374 31.2786C79.7859 31.3783 79.0417 31.7528 78.2838 32.111C76.6133 32.9001 67.3118 37.5243 62.0753 40.1691L58.2688 42.0913L58.2168 46.7815C58.1627 51.6211 58.2021 51.7845 59.2743 51.1499C59.5733 50.973 61.9264 49.7809 64.5034 48.5006C71.581 44.9852 78.6548 41.4646 85.7252 37.9387C91.0307 35.2944 95.9296 32.8597 96.6117 32.5287C97.2939 32.1974 100.456 30.6208 103.64 29.0249C106.823 27.429 109.788 25.964 110.229 25.7693L111.03 25.4152L108.299 24.0371C106.798 23.2791 104.684 22.1955 103.602 21.6291C101.249 20.397 101.657 20.3851 98.9544 21.7651ZM115.215 28.9655C114.457 29.3673 112.287 30.464 110.392 31.4028C104.093 34.5245 97.8004 37.6542 91.513 40.7925C88.5767 42.2585 85.6367 43.719 82.6935 45.1745C76.1059 48.4282 58.4516 57.2152 58.3617 57.285C58.2002 57.4104 58.2785 66.5553 58.4417 66.6362C58.5979 66.7139 61.9146 65.1064 70.1533 60.9593C71.8966 60.0818 73.8189 59.1252 74.4253 58.8336C75.0316 58.542 77.8222 57.1587 80.6265 55.7592C83.4308 54.36 88.7018 51.7365 92.3398 49.9295C108.104 42.1001 112.843 39.7381 114.543 38.8646C116.836 37.6858 116.535 37.6487 120.29 39.5695C125.281 42.1231 129.142 44.0408 130.695 44.7378L132.119 45.3766L136.759 43.0459C141.865 40.4809 141.796 40.5206 141.385 40.3926C141.226 40.3429 138.249 38.8789 134.77 37.1394C121.076 30.2914 117.32 28.4343 116.964 28.3367C116.76 28.2809 115.973 28.564 115.215 28.9655ZM32.0491 39.7345L27.431 42.0058L27.5016 63.5231L27.5719 85.0402L30.0523 86.3226C32.871 87.7798 36.8105 89.706 36.9723 89.706C37.0318 89.706 37.0804 77.9507 37.0804 63.5832C37.0804 49.2157 36.9875 37.4609 36.8736 37.4616C36.7598 37.4623 34.5889 38.4851 32.0491 39.7345ZM145.529 44.3996C144.47 44.9244 141.103 46.6236 138.048 48.1753C134.993 49.7272 132.32 50.9968 132.108 50.9968C131.895 50.9968 130.302 50.2943 128.567 49.4358C117.409 43.9142 116.646 43.5663 116.207 43.7954C115.965 43.9215 113.879 44.9676 111.572 46.1204C109.265 47.2731 107.433 48.2931 107.5 48.3873C107.623 48.5576 112.791 51.1656 121.968 55.6872C124.451 56.9105 126.932 58.139 129.409 59.3727L132.027 60.6814L133.543 59.9564C134.377 59.5574 136.795 58.3589 138.918 57.2928C141.04 56.2268 145.877 53.8216 149.666 51.9479C153.456 50.0742 156.657 48.4674 156.78 48.3769C156.967 48.2396 153.64 46.4616 148.561 43.9845L147.455 43.4451L145.529 44.3996ZM16.6164 47.3515L12 49.6367V92.6849L14.825 94.0861C16.8251 95.079 18.8232 96.0747 20.8195 97.0733C22.5627 97.9458 26.6555 99.9751 29.9145 101.583C33.1736 103.191 36.9563 105.066 38.3206 105.752C39.6849 106.436 43.9637 108.568 47.8291 110.488C60.9607 117.011 62.5719 117.813 66.5704 119.821L70.5668 121.828L71.807 121.241C74.9856 119.739 80.0742 117.14 80.0637 117.025C80.0573 116.955 77.8558 115.813 75.1716 114.488C70.8771 112.364 66.5859 110.235 62.2985 108.101C57.9026 105.913 52.3215 103.139 49.8961 101.937C42.2177 98.132 30.8442 92.4764 27.9853 91.0416C26.7252 90.4139 25.4621 89.7908 24.1959 89.1721L21.6468 87.9249L21.6466 66.4923C21.6466 54.7043 21.5534 45.0612 21.4396 45.0631C21.3258 45.0648 19.1553 46.0947 16.6164 47.3515ZM96.5428 53.5492C94.0039 54.8088 91.9264 55.905 91.9264 55.9855C91.9264 56.066 97.5177 58.8856 104.351 62.2514L116.776 68.3708L119.992 66.7253C121.761 65.8203 123.859 64.7699 124.655 64.3909C125.45 64.0121 126.1 63.6485 126.1 63.5832C126.099 63.5179 124.766 62.8152 123.137 62.0215C119.877 60.4328 106.751 53.9007 103.536 52.2673C102.418 51.699 101.426 51.2397 101.331 51.2466C101.237 51.2535 99.0817 52.2896 96.5428 53.5492ZM108.67 77.998L104.053 80.2913V92.7167C104.053 99.5507 104.102 105.142 104.161 105.142C104.22 105.142 106.453 104.065 109.122 102.749L113.975 100.356V88.0251C113.975 78.3165 113.902 75.6959 113.631 75.6997C113.441 75.7025 111.209 76.7367 108.67 77.998ZM119.487 80.3875V85.0803L126.309 88.4685L141.674 96.1004L150.218 100.344L150.355 114.232L150.493 128.12L155.179 125.796L159.864 123.472L159.932 109.498L160 95.5242L156.073 93.5866C151.326 91.2437 148.849 90.0119 132.688 81.9582C125.774 78.5133 119.976 75.6947 119.803 75.6947C119.577 75.6947 119.487 77.0215 119.487 80.3875ZM119.482 112.326L119.477 133.758L116.795 135.1C115.32 135.838 109.896 138.548 104.742 141.122C99.5883 143.697 94.1313 146.431 92.6154 147.2C91.0996 147.968 86.9021 150.067 83.288 151.864C79.6737 153.661 76.7241 155.239 76.7338 155.369C76.7539 155.644 85.4648 160 85.9939 160C86.188 160 89.9277 158.222 94.3044 156.05C98.6807 153.877 104.246 151.114 106.671 149.911C109.097 148.708 114.368 146.086 118.385 144.085C121.391 142.587 124.399 141.091 127.408 139.596L129.128 138.746L129.131 117.096L129.134 95.4463L124.504 93.1699C121.957 91.9179 119.787 90.8934 119.68 90.8934C119.574 90.8934 119.485 100.538 119.482 112.326ZM12.0077 103.293L12.0154 108.111L14.2815 109.217C15.5278 109.825 25.2008 114.607 35.777 119.844C46.3532 125.08 55.1313 129.365 55.284 129.365C55.7864 129.365 64.8843 124.738 64.6916 124.58C64.5166 124.437 57.4158 120.889 53.3412 118.909C52.3559 118.43 48.7593 116.65 45.3486 114.952C32.3068 108.463 13.399 99.1052 12.6201 98.7549L12 98.4761L12.0077 103.293ZM134.921 117.135C134.921 127.388 134.967 135.777 135.023 135.777C135.079 135.777 137.219 134.729 139.778 133.448L144.43 131.12L144.501 117.114L144.572 103.108L139.903 100.8C137.335 99.5312 135.163 98.4927 135.077 98.4927C134.992 98.4927 134.921 106.882 134.921 117.135ZM108.325 108.742C104.791 110.51 101.254 112.275 97.7142 114.036C94.7583 115.506 91.0996 117.327 89.5837 118.083C81.0752 122.326 79.2145 123.253 74.5631 125.559C71.7588 126.95 66.2742 129.671 62.3749 131.606L55.2857 135.123L48.181 131.617C44.2737 129.689 35.4956 125.359 28.6743 121.994C21.853 118.63 15.4057 115.439 14.3471 114.903C13.2885 114.367 12.3271 113.929 12.2111 113.929C12.0951 113.929 12 116.05 12 118.643V123.356L33.0151 133.762C44.5736 139.486 54.3403 144.323 54.7193 144.512C55.3835 144.844 55.8129 144.654 66.7082 139.207C72.1727 136.475 77.6389 133.745 83.1069 131.018C88.2536 128.451 93.3984 125.88 98.541 123.306C104.225 120.462 109.993 117.586 111.357 116.916L113.837 115.698L113.912 110.895C113.953 108.253 113.891 106.098 113.774 106.106C113.657 106.114 111.205 107.3 108.325 108.742ZM105.431 125.487C101.111 127.656 97.2043 129.614 96.7495 129.837C96.2948 130.061 93.9383 131.239 91.513 132.454C88.346 134.04 85.1765 135.622 82.0045 137.2C79.4077 138.492 76.8129 139.786 74.2202 141.084C72.4307 141.981 70.639 142.875 68.8459 143.766C61.0696 147.628 60.9811 147.679 61.5196 147.995C62.7348 148.708 70.3843 152.401 70.6453 152.401C70.8043 152.401 74.6345 150.552 79.1566 148.293C83.6788 146.034 93.3609 141.198 100.672 137.547L113.965 130.909L113.97 126.219C113.974 122.618 113.895 121.53 113.631 121.536C113.441 121.54 109.751 123.318 105.431 125.487Z" fill="url(#paint0_angular_252_532)"/>
</g>
<path d="M210.532 94.9339C205.987 94.9339 201.722 94.0934 197.738 92.4124C193.816 90.6692 190.36 88.2723 187.372 85.2217C184.446 82.171 182.142 78.6223 180.461 74.5756C178.78 70.5288 177.94 66.1708 177.94 61.5015C177.94 56.8321 178.78 52.5052 180.461 48.5207C182.142 44.474 184.477 40.9253 187.465 37.8747C190.454 34.824 193.94 32.4582 197.925 30.7773C201.971 29.0963 206.361 28.2558 211.092 28.2558C216.26 28.2558 221.022 29.252 225.38 31.2442C229.738 33.2365 233.38 36.1003 236.307 39.8358L230.236 45.9059C228.182 42.9175 225.474 40.6451 222.112 39.0887C218.75 37.47 215.077 36.6606 211.092 36.6606C206.361 36.6606 202.158 37.719 198.485 39.8358C194.874 41.9525 192.041 44.8787 189.987 48.6141C187.995 52.3496 186.998 56.6454 186.998 61.5015C186.998 66.4198 188.026 70.7467 190.08 74.4822C192.135 78.2177 194.905 81.1438 198.392 83.2605C201.878 85.3773 205.863 86.4357 210.345 86.4357C214.89 86.4357 218.812 85.5641 222.112 83.8209C225.474 82.0776 228.057 79.5251 229.863 76.1632C231.668 72.739 232.571 68.5677 232.571 63.6494L237.894 67.4782H209.878V59.447H241.63V60.7544C241.63 68.2876 240.291 74.6067 237.614 79.7119C234.999 84.7547 231.326 88.5524 226.594 91.105C221.925 93.6576 216.571 94.9339 210.532 94.9339ZM259.321 65.7973V58.4197H276.877C280.675 58.4197 283.601 57.4547 285.656 55.5247C287.71 53.5947 288.737 50.9799 288.737 47.6803C288.737 44.5674 287.71 41.9837 285.656 39.9292C283.663 37.8747 280.768 36.8474 276.971 36.8474H259.321V29.1897H277.251C281.36 29.1897 284.94 29.9991 287.99 31.6178C291.041 33.1742 293.375 35.3221 294.994 38.0614C296.675 40.8008 297.516 43.9448 297.516 47.4935C297.516 51.1667 296.675 54.373 294.994 57.1123C293.375 59.8516 291.041 61.9995 287.99 63.556C284.94 65.0502 281.36 65.7973 277.251 65.7973H259.321ZM253.437 94V29.1897H262.215V94H253.437ZM290.792 94L267.258 64.9568L275.57 62.0618L301.905 94H290.792ZM310.983 94V29.1897H319.761V94H310.983ZM340.943 68.7856V61.1279H358.593C361.021 61.1279 363.169 60.6299 365.036 59.6337C366.966 58.6376 368.46 57.2368 369.519 55.4313C370.64 53.6259 371.2 51.478 371.2 48.9877C371.2 46.4974 370.64 44.3495 369.519 42.544C368.46 40.7385 366.966 39.3377 365.036 38.3416C363.169 37.3455 361.021 36.8474 358.593 36.8474H340.943V29.1897H359.153C363.137 29.1897 366.686 29.9991 369.799 31.6178C372.974 33.2365 375.464 35.54 377.27 38.5284C379.138 41.4545 380.072 44.9409 380.072 48.9877C380.072 52.9722 379.138 56.4586 377.27 59.447C375.464 62.3731 372.974 64.6766 369.799 66.3576C366.686 67.9763 363.137 68.7856 359.153 68.7856H340.943ZM335.059 94V29.1897H343.838V94H335.059ZM421.11 94.9339C416.441 94.9339 412.114 94.0934 408.129 92.4124C404.145 90.6692 400.658 88.2723 397.67 85.2217C394.744 82.171 392.471 78.6223 390.853 74.5756C389.234 70.5288 388.425 66.2019 388.425 61.5949C388.425 56.9255 389.234 52.5675 390.853 48.5207C392.471 44.474 394.744 40.9564 397.67 37.9681C400.658 34.9174 404.113 32.5516 408.036 30.8707C412.02 29.1275 416.347 28.2558 421.016 28.2558C426.122 28.2558 430.604 29.1275 434.464 30.8707C438.324 32.6139 441.748 34.9797 444.737 37.9681L438.667 44.0382C436.612 41.7346 434.091 39.9292 431.102 38.6218C428.176 37.3143 424.814 36.6606 421.016 36.6606C417.592 36.6606 414.448 37.2832 411.584 38.5284C408.721 39.7113 406.23 41.4234 404.113 43.6646C401.997 45.9059 400.347 48.5519 399.164 51.6025C398.043 54.6531 397.483 57.9839 397.483 61.5949C397.483 65.2058 398.043 68.5366 399.164 71.5872C400.347 74.6378 401.997 77.2838 404.113 79.5251C406.23 81.7664 408.721 83.5096 411.584 84.7547C414.448 85.9376 417.592 86.5291 421.016 86.5291C425.063 86.5291 428.581 85.8754 431.569 84.568C434.558 83.1983 437.079 81.3617 439.133 79.0581L445.204 85.0349C442.215 88.1478 438.698 90.5758 434.651 92.319C430.666 94.0623 426.153 94.9339 421.11 94.9339ZM482.853 94.9339C478.246 94.9339 473.95 94.0934 469.966 92.4124C465.981 90.6692 462.495 88.2723 459.506 85.2217C456.518 82.1088 454.183 78.529 452.502 74.4822C450.884 70.4355 450.074 66.1085 450.074 61.5015C450.074 56.8321 450.884 52.5052 452.502 48.5207C454.183 44.474 456.487 40.9253 459.413 37.8747C462.401 34.824 465.857 32.4582 469.779 30.7773C473.763 29.0963 478.059 28.2558 482.666 28.2558C487.273 28.2558 491.538 29.0963 495.46 30.7773C499.445 32.4582 502.931 34.824 505.919 37.8747C508.908 40.9253 511.242 44.474 512.923 48.5207C514.604 52.5675 515.445 56.9255 515.445 61.5949C515.445 66.2019 514.604 70.5288 512.923 74.5756C511.242 78.6223 508.908 82.171 505.919 85.2217C502.993 88.2723 499.538 90.6692 495.554 92.4124C491.631 94.0934 487.398 94.9339 482.853 94.9339ZM482.666 86.5291C487.336 86.5291 491.413 85.4707 494.9 83.3539C498.449 81.1749 501.25 78.2177 503.305 74.4822C505.359 70.6845 506.386 66.3576 506.386 61.5015C506.386 57.8905 505.795 54.5909 504.612 51.6025C503.429 48.5519 501.779 45.9059 499.663 43.6646C497.546 41.4234 495.055 39.7113 492.192 38.5284C489.328 37.2832 486.153 36.6606 482.666 36.6606C478.059 36.6606 473.981 37.719 470.433 39.8358C466.946 41.9525 464.176 44.8787 462.121 48.6141C460.129 52.3496 459.133 56.6454 459.133 61.5015C459.133 65.1124 459.693 68.4743 460.814 71.5872C461.997 74.6378 463.615 77.2838 465.67 79.5251C467.787 81.7041 470.277 83.4162 473.141 84.6613C476.067 85.9065 479.242 86.5291 482.666 86.5291Z" fill="url(#paint1_linear_252_532)"/>
<path d="M201.635 121.586C200.701 121.586 199.823 121.418 199.001 121.082C198.192 120.734 197.476 120.248 196.853 119.625C196.243 119.003 195.764 118.287 195.415 117.477C195.079 116.656 194.911 115.772 194.911 114.825C194.911 113.866 195.085 112.982 195.434 112.173C195.782 111.351 196.268 110.635 196.891 110.025C197.513 109.403 198.242 108.923 199.076 108.587C199.91 108.238 200.813 108.064 201.784 108.064C202.867 108.064 203.863 108.27 204.772 108.68C205.681 109.079 206.435 109.645 207.032 110.38L205.314 112.098C204.903 111.563 204.393 111.152 203.783 110.866C203.172 110.579 202.5 110.436 201.765 110.436C200.931 110.436 200.19 110.623 199.543 110.996C198.908 111.357 198.41 111.868 198.049 112.528C197.687 113.175 197.507 113.935 197.507 114.807C197.507 115.678 197.681 116.45 198.03 117.123C198.391 117.782 198.877 118.299 199.487 118.673C200.109 119.046 200.819 119.233 201.616 119.233C202.438 119.233 203.141 119.084 203.726 118.785C204.312 118.474 204.76 118.025 205.071 117.44C205.383 116.842 205.538 116.114 205.538 115.255L207.2 116.394L201.467 116.338V114.134H208.153V114.489C208.153 116.058 207.873 117.372 207.313 118.43C206.752 119.476 205.98 120.267 204.997 120.802C204.025 121.325 202.905 121.586 201.635 121.586ZM210.101 121.4V108.27H212.642V121.4H210.101ZM211.969 121.4V119.14H218.656V121.4H211.969ZM225.749 121.605C224.79 121.605 223.894 121.431 223.06 121.082C222.238 120.734 221.516 120.254 220.893 119.644C220.283 119.021 219.803 118.299 219.455 117.477C219.106 116.643 218.932 115.753 218.932 114.807C218.932 113.86 219.1 112.982 219.436 112.173C219.785 111.351 220.264 110.635 220.874 110.025C221.497 109.403 222.219 108.923 223.041 108.587C223.863 108.238 224.753 108.064 225.712 108.064C226.683 108.064 227.579 108.238 228.401 108.587C229.223 108.923 229.939 109.403 230.549 110.025C231.172 110.635 231.657 111.351 232.006 112.173C232.355 112.995 232.529 113.879 232.529 114.825C232.529 115.772 232.355 116.656 232.006 117.477C231.657 118.299 231.172 119.021 230.549 119.644C229.939 120.254 229.223 120.734 228.401 121.082C227.592 121.431 226.708 121.605 225.749 121.605ZM225.712 119.233C226.558 119.233 227.293 119.046 227.916 118.673C228.538 118.299 229.024 117.782 229.372 117.123C229.734 116.463 229.914 115.691 229.914 114.807C229.914 114.159 229.815 113.568 229.615 113.032C229.416 112.497 229.13 112.036 228.756 111.65C228.383 111.252 227.941 110.947 227.43 110.735C226.92 110.523 226.347 110.417 225.712 110.417C224.89 110.417 224.162 110.604 223.526 110.978C222.904 111.339 222.412 111.849 222.051 112.509C221.702 113.169 221.528 113.935 221.528 114.807C221.528 115.466 221.628 116.07 221.827 116.618C222.039 117.166 222.325 117.633 222.686 118.019C223.06 118.405 223.502 118.704 224.012 118.916C224.535 119.127 225.102 119.233 225.712 119.233ZM236.41 121.4V119.326H239.828C240.438 119.326 240.911 119.14 241.248 118.766C241.596 118.393 241.771 117.951 241.771 117.44C241.771 117.091 241.696 116.774 241.546 116.488C241.397 116.201 241.173 115.977 240.874 115.815C240.588 115.641 240.239 115.554 239.828 115.554H236.41V113.499H239.548C240.071 113.499 240.488 113.368 240.799 113.107C241.123 112.845 241.285 112.453 241.285 111.93C241.285 111.395 241.123 110.996 240.799 110.735C240.488 110.473 240.071 110.343 239.548 110.343H236.41V108.27H239.847C240.718 108.27 241.447 108.431 242.032 108.755C242.63 109.066 243.078 109.484 243.377 110.006C243.676 110.517 243.825 111.077 243.825 111.687C243.825 112.435 243.595 113.082 243.134 113.63C242.686 114.165 242.026 114.564 241.154 114.825L241.266 114.003C242.237 114.277 242.985 114.732 243.508 115.367C244.043 115.989 244.311 116.743 244.311 117.627C244.311 118.324 244.136 118.959 243.788 119.532C243.452 120.092 242.953 120.547 242.294 120.895C241.646 121.232 240.855 121.4 239.922 121.4H236.41ZM234.542 121.4V108.27H237.064V121.4H234.542ZM245.354 121.4L250.64 108.27H252.713L257.98 121.4H255.272L251.2 110.623H252.134L248.006 121.4H245.354ZM248.156 118.953V116.824H255.216V118.953H248.156ZM259.531 121.4V108.27H262.071V121.4H259.531ZM261.398 121.4V119.14H268.085V121.4H261.398ZM275.279 115.909V113.929H278.323C278.946 113.929 279.425 113.773 279.761 113.462C280.11 113.138 280.284 112.696 280.284 112.136C280.284 111.625 280.11 111.202 279.761 110.866C279.425 110.517 278.946 110.343 278.323 110.343H275.279V108.27H278.547C279.394 108.27 280.135 108.438 280.77 108.774C281.417 109.098 281.915 109.546 282.264 110.119C282.625 110.691 282.806 111.351 282.806 112.098C282.806 112.87 282.625 113.543 282.264 114.116C281.915 114.676 281.417 115.118 280.77 115.442C280.122 115.753 279.369 115.909 278.51 115.909H275.279ZM273.411 121.4V108.27H275.951V121.4H273.411ZM280.583 121.4L276.25 115.722L278.585 114.993L283.665 121.4H280.583ZM285.103 121.4V108.27H287.643V121.4H285.103ZM286.97 121.4V119.158H294.236V121.4H286.97ZM286.97 115.778V113.611H293.582V115.778H286.97ZM286.97 110.511V108.27H294.142V110.511H286.97ZM299.82 121.586C298.762 121.586 297.853 121.406 297.093 121.045C296.346 120.684 295.667 120.142 295.057 119.42L296.738 117.739C297.124 118.249 297.572 118.648 298.083 118.934C298.593 119.208 299.216 119.345 299.951 119.345C300.611 119.345 301.134 119.214 301.52 118.953C301.918 118.691 302.117 118.33 302.117 117.87C302.117 117.471 302.005 117.147 301.781 116.898C301.557 116.649 301.258 116.438 300.885 116.263C300.523 116.089 300.119 115.933 299.671 115.796C299.235 115.647 298.793 115.479 298.344 115.292C297.909 115.105 297.504 114.875 297.13 114.601C296.769 114.315 296.477 113.954 296.253 113.518C296.028 113.07 295.916 112.509 295.916 111.837C295.916 111.04 296.109 110.361 296.495 109.801C296.881 109.241 297.411 108.811 298.083 108.512C298.755 108.213 299.515 108.064 300.362 108.064C301.258 108.064 302.067 108.232 302.79 108.568C303.512 108.905 304.103 109.34 304.564 109.876L302.883 111.557C302.497 111.133 302.099 110.822 301.688 110.623C301.289 110.424 300.835 110.324 300.324 110.324C299.739 110.324 299.278 110.436 298.942 110.66C298.606 110.884 298.438 111.208 298.438 111.631C298.438 111.993 298.55 112.285 298.774 112.509C298.998 112.733 299.291 112.926 299.652 113.088C300.025 113.25 300.43 113.406 300.866 113.555C301.314 113.705 301.756 113.873 302.192 114.059C302.64 114.246 303.045 114.489 303.406 114.788C303.78 115.087 304.078 115.473 304.303 115.946C304.527 116.407 304.639 116.979 304.639 117.664C304.639 118.884 304.209 119.843 303.35 120.541C302.491 121.238 301.314 121.586 299.82 121.586ZM312.898 121.605C311.939 121.605 311.042 121.431 310.208 121.082C309.386 120.734 308.664 120.254 308.042 119.644C307.431 119.021 306.952 118.299 306.603 117.477C306.255 116.643 306.081 115.753 306.081 114.807C306.081 113.86 306.249 112.982 306.585 112.173C306.933 111.351 307.413 110.635 308.023 110.025C308.646 109.403 309.368 108.923 310.19 108.587C311.011 108.238 311.902 108.064 312.86 108.064C313.832 108.064 314.728 108.238 315.55 108.587C316.372 108.923 317.088 109.403 317.698 110.025C318.32 110.635 318.806 111.351 319.155 112.173C319.503 112.995 319.678 113.879 319.678 114.825C319.678 115.772 319.503 116.656 319.155 117.477C318.806 118.299 318.32 119.021 317.698 119.644C317.088 120.254 316.372 120.734 315.55 121.082C314.741 121.431 313.856 121.605 312.898 121.605ZM312.86 119.233C313.707 119.233 314.442 119.046 315.064 118.673C315.687 118.299 316.172 117.782 316.521 117.123C316.882 116.463 317.063 115.691 317.063 114.807C317.063 114.159 316.963 113.568 316.764 113.032C316.565 112.497 316.278 112.036 315.905 111.65C315.531 111.252 315.089 110.947 314.579 110.735C314.068 110.523 313.495 110.417 312.86 110.417C312.039 110.417 311.31 110.604 310.675 110.978C310.053 111.339 309.561 111.849 309.2 112.509C308.851 113.169 308.677 113.935 308.677 114.807C308.677 115.466 308.776 116.07 308.975 116.618C309.187 117.166 309.474 117.633 309.835 118.019C310.208 118.405 310.65 118.704 311.161 118.916C311.684 119.127 312.25 119.233 312.86 119.233ZM326.865 121.586C325.831 121.586 324.91 121.362 324.1 120.914C323.304 120.453 322.675 119.825 322.214 119.028C321.753 118.231 321.523 117.328 321.523 116.319V108.27H324.063V116.394C324.063 116.979 324.181 117.484 324.418 117.907C324.667 118.33 325.003 118.66 325.427 118.897C325.862 119.121 326.342 119.233 326.865 119.233C327.4 119.233 327.873 119.121 328.284 118.897C328.695 118.66 329.019 118.33 329.255 117.907C329.504 117.484 329.629 116.986 329.629 116.413V108.27H332.188V116.338C332.188 117.347 331.957 118.249 331.497 119.046C331.036 119.831 330.407 120.453 329.61 120.914C328.826 121.362 327.911 121.586 326.865 121.586ZM336.564 115.909V113.929H339.608C340.231 113.929 340.71 113.773 341.046 113.462C341.395 113.138 341.569 112.696 341.569 112.136C341.569 111.625 341.395 111.202 341.046 110.866C340.71 110.517 340.231 110.343 339.608 110.343H336.564V108.27H339.832C340.679 108.27 341.42 108.438 342.055 108.774C342.702 109.098 343.2 109.546 343.549 110.119C343.91 110.691 344.091 111.351 344.091 112.098C344.091 112.87 343.91 113.543 343.549 114.116C343.2 114.676 342.702 115.118 342.055 115.442C341.407 115.753 340.654 115.909 339.795 115.909H336.564ZM334.696 121.4V108.27H337.236V121.4H334.696ZM341.868 121.4L337.535 115.722L339.87 114.993L344.95 121.4H341.868ZM352.367 121.586C351.408 121.586 350.518 121.418 349.696 121.082C348.874 120.734 348.152 120.254 347.529 119.644C346.919 119.021 346.446 118.299 346.11 117.477C345.786 116.656 345.624 115.772 345.624 114.825C345.624 113.879 345.786 112.995 346.11 112.173C346.446 111.351 346.919 110.635 347.529 110.025C348.152 109.415 348.868 108.936 349.677 108.587C350.499 108.238 351.396 108.064 352.367 108.064C353.413 108.064 354.334 108.238 355.131 108.587C355.928 108.923 356.631 109.39 357.242 109.988L355.523 111.706C355.162 111.308 354.72 110.996 354.197 110.772C353.674 110.548 353.064 110.436 352.367 110.436C351.757 110.436 351.196 110.542 350.686 110.754C350.188 110.953 349.752 111.252 349.378 111.65C349.005 112.036 348.719 112.503 348.519 113.051C348.32 113.586 348.22 114.178 348.22 114.825C348.22 115.485 348.32 116.083 348.519 116.618C348.719 117.154 349.005 117.621 349.378 118.019C349.752 118.405 350.188 118.704 350.686 118.916C351.196 119.127 351.757 119.233 352.367 119.233C353.101 119.233 353.73 119.121 354.253 118.897C354.789 118.673 355.237 118.355 355.598 117.944L357.316 119.663C356.706 120.273 355.996 120.746 355.187 121.082C354.378 121.418 353.438 121.586 352.367 121.586ZM359.082 121.4V108.27H361.622V121.4H359.082ZM360.95 121.4V119.158H368.215V121.4H360.95ZM360.95 115.778V113.611H367.562V115.778H360.95ZM360.95 110.511V108.27H368.122V110.511H360.95ZM373.8 121.586C372.741 121.586 371.832 121.406 371.073 121.045C370.326 120.684 369.647 120.142 369.037 119.42L370.718 117.739C371.104 118.249 371.552 118.648 372.063 118.934C372.573 119.208 373.196 119.345 373.93 119.345C374.59 119.345 375.113 119.214 375.499 118.953C375.898 118.691 376.097 118.33 376.097 117.87C376.097 117.471 375.985 117.147 375.761 116.898C375.537 116.649 375.238 116.438 374.864 116.263C374.503 116.089 374.098 115.933 373.65 115.796C373.214 115.647 372.772 115.479 372.324 115.292C371.888 115.105 371.484 114.875 371.11 114.601C370.749 114.315 370.456 113.954 370.232 113.518C370.008 113.07 369.896 112.509 369.896 111.837C369.896 111.04 370.089 110.361 370.475 109.801C370.861 109.241 371.39 108.811 372.063 108.512C372.735 108.213 373.495 108.064 374.341 108.064C375.238 108.064 376.047 108.232 376.769 108.568C377.492 108.905 378.083 109.34 378.544 109.876L376.863 111.557C376.477 111.133 376.078 110.822 375.667 110.623C375.269 110.424 374.814 110.324 374.304 110.324C373.719 110.324 373.258 110.436 372.922 110.66C372.586 110.884 372.418 111.208 372.418 111.631C372.418 111.993 372.53 112.285 372.754 112.509C372.978 112.733 373.27 112.926 373.632 113.088C374.005 113.25 374.41 113.406 374.846 113.555C375.294 113.705 375.736 113.873 376.172 114.059C376.62 114.246 377.025 114.489 377.386 114.788C377.759 115.087 378.058 115.473 378.282 115.946C378.506 116.407 378.618 116.979 378.618 117.664C378.618 118.884 378.189 119.843 377.33 120.541C376.47 121.238 375.294 121.586 373.8 121.586ZM384.271 121.4V108.27H386.811V121.4H384.271ZM389.506 121.4V108.27H391.28L392.046 110.81V121.4H389.506ZM398.583 121.4L390.795 111.314L391.28 108.27L399.069 118.355L398.583 121.4ZM398.583 121.4L397.855 118.934V108.27H400.413V121.4H398.583ZM406.631 121.586C405.572 121.586 404.664 121.406 403.904 121.045C403.157 120.684 402.478 120.142 401.868 119.42L403.549 117.739C403.935 118.249 404.383 118.648 404.894 118.934C405.404 119.208 406.027 119.345 406.762 119.345C407.422 119.345 407.944 119.214 408.33 118.953C408.729 118.691 408.928 118.33 408.928 117.87C408.928 117.471 408.816 117.147 408.592 116.898C408.368 116.649 408.069 116.438 407.695 116.263C407.334 116.089 406.93 115.933 406.481 115.796C406.046 115.647 405.604 115.479 405.155 115.292C404.72 115.105 404.315 114.875 403.941 114.601C403.58 114.315 403.288 113.954 403.063 113.518C402.839 113.07 402.727 112.509 402.727 111.837C402.727 111.04 402.92 110.361 403.306 109.801C403.692 109.241 404.221 108.811 404.894 108.512C405.566 108.213 406.326 108.064 407.172 108.064C408.069 108.064 408.878 108.232 409.601 108.568C410.323 108.905 410.914 109.34 411.375 109.876L409.694 111.557C409.308 111.133 408.909 110.822 408.499 110.623C408.1 110.424 407.646 110.324 407.135 110.324C406.55 110.324 406.089 110.436 405.753 110.66C405.417 110.884 405.249 111.208 405.249 111.631C405.249 111.993 405.361 112.285 405.585 112.509C405.809 112.733 406.102 112.926 406.463 113.088C406.836 113.25 407.241 113.406 407.677 113.555C408.125 113.705 408.567 113.873 409.003 114.059C409.451 114.246 409.856 114.489 410.217 114.788C410.59 115.087 410.889 115.473 411.113 115.946C411.338 116.407 411.45 116.979 411.45 117.664C411.45 118.884 411.02 119.843 410.161 120.541C409.302 121.238 408.125 121.586 406.631 121.586ZM415.322 116.525V114.452H418.366C418.765 114.452 419.126 114.371 419.45 114.209C419.773 114.047 420.029 113.817 420.216 113.518C420.402 113.207 420.496 112.833 420.496 112.397C420.496 111.974 420.402 111.607 420.216 111.295C420.029 110.984 419.773 110.747 419.45 110.585C419.126 110.424 418.765 110.343 418.366 110.343H415.322V108.27H418.628C419.462 108.27 420.209 108.438 420.869 108.774C421.542 109.11 422.071 109.589 422.457 110.212C422.843 110.822 423.036 111.55 423.036 112.397C423.036 113.244 422.843 113.979 422.457 114.601C422.071 115.211 421.542 115.684 420.869 116.021C420.209 116.357 419.462 116.525 418.628 116.525H415.322ZM413.454 121.4V108.27H415.994V121.4H413.454ZM424.836 121.4V108.27H427.376V121.4H424.836ZM426.704 121.4V119.158H433.969V121.4H426.704ZM426.704 115.778V113.611H433.315V115.778H426.704ZM426.704 110.511V108.27H433.876V110.511H426.704ZM441.923 121.586C440.964 121.586 440.074 121.418 439.252 121.082C438.43 120.734 437.708 120.254 437.086 119.644C436.476 119.021 436.002 118.299 435.666 117.477C435.342 116.656 435.181 115.772 435.181 114.825C435.181 113.879 435.342 112.995 435.666 112.173C436.002 111.351 436.476 110.635 437.086 110.025C437.708 109.415 438.424 108.936 439.234 108.587C440.055 108.238 440.952 108.064 441.923 108.064C442.969 108.064 443.89 108.238 444.687 108.587C445.484 108.923 446.188 109.39 446.798 109.988L445.08 111.706C444.718 111.308 444.276 110.996 443.753 110.772C443.231 110.548 442.62 110.436 441.923 110.436C441.313 110.436 440.753 110.542 440.242 110.754C439.744 110.953 439.308 111.252 438.935 111.65C438.561 112.036 438.275 112.503 438.076 113.051C437.876 113.586 437.777 114.178 437.777 114.825C437.777 115.485 437.876 116.083 438.076 116.618C438.275 117.154 438.561 117.621 438.935 118.019C439.308 118.405 439.744 118.704 440.242 118.916C440.753 119.127 441.313 119.233 441.923 119.233C442.658 119.233 443.287 119.121 443.809 118.897C444.345 118.673 444.793 118.355 445.154 117.944L446.873 119.663C446.262 120.273 445.553 120.746 444.743 121.082C443.934 121.418 442.994 121.586 441.923 121.586ZM451.651 121.4V108.55H454.21V121.4H451.651ZM447.467 110.529V108.27H458.394V110.529H447.467ZM460.148 121.4V108.27H462.688V121.4H460.148ZM471.527 121.605C470.568 121.605 469.672 121.431 468.838 121.082C468.016 120.734 467.294 120.254 466.671 119.644C466.061 119.021 465.582 118.299 465.233 117.477C464.884 116.643 464.71 115.753 464.71 114.807C464.71 113.86 464.878 112.982 465.214 112.173C465.563 111.351 466.042 110.635 466.652 110.025C467.275 109.403 467.997 108.923 468.819 108.587C469.641 108.238 470.531 108.064 471.49 108.064C472.461 108.064 473.358 108.238 474.179 108.587C475.001 108.923 475.717 109.403 476.327 110.025C476.95 110.635 477.435 111.351 477.784 112.173C478.133 112.995 478.307 113.879 478.307 114.825C478.307 115.772 478.133 116.656 477.784 117.477C477.435 118.299 476.95 119.021 476.327 119.644C475.717 120.254 475.001 120.734 474.179 121.082C473.37 121.431 472.486 121.605 471.527 121.605ZM471.49 119.233C472.337 119.233 473.071 119.046 473.694 118.673C474.316 118.299 474.802 117.782 475.151 117.123C475.512 116.463 475.692 115.691 475.692 114.807C475.692 114.159 475.593 113.568 475.393 113.032C475.194 112.497 474.908 112.036 474.534 111.65C474.161 111.252 473.719 110.947 473.208 110.735C472.698 110.523 472.125 110.417 471.49 110.417C470.668 110.417 469.94 110.604 469.305 110.978C468.682 111.339 468.19 111.849 467.829 112.509C467.48 113.169 467.306 113.935 467.306 114.807C467.306 115.466 467.406 116.07 467.605 116.618C467.817 117.166 468.103 117.633 468.464 118.019C468.838 118.405 469.28 118.704 469.79 118.916C470.313 119.127 470.88 119.233 471.49 119.233ZM480.321 121.4V108.27H482.095L482.861 110.81V121.4H480.321ZM489.398 121.4L481.609 111.314L482.095 108.27L489.883 118.355L489.398 121.4ZM489.398 121.4L488.669 118.934V108.27H491.228V121.4H489.398ZM503.628 121.586C502.669 121.586 501.778 121.418 500.957 121.082C500.135 120.734 499.413 120.254 498.79 119.644C498.18 119.021 497.707 118.299 497.371 117.477C497.047 116.656 496.885 115.772 496.885 114.825C496.885 113.879 497.047 112.995 497.371 112.173C497.707 111.351 498.18 110.635 498.79 110.025C499.413 109.415 500.129 108.936 500.938 108.587C501.76 108.238 502.656 108.064 503.628 108.064C504.673 108.064 505.595 108.238 506.392 108.587C507.189 108.923 507.892 109.39 508.502 109.988L506.784 111.706C506.423 111.308 505.981 110.996 505.458 110.772C504.935 110.548 504.325 110.436 503.628 110.436C503.017 110.436 502.457 110.542 501.947 110.754C501.449 110.953 501.013 111.252 500.639 111.65C500.266 112.036 499.979 112.503 499.78 113.051C499.581 113.586 499.481 114.178 499.481 114.825C499.481 115.485 499.581 116.083 499.78 116.618C499.979 117.154 500.266 117.621 500.639 118.019C501.013 118.405 501.449 118.704 501.947 118.916C502.457 119.127 503.017 119.233 503.628 119.233C504.362 119.233 504.991 119.121 505.514 118.897C506.049 118.673 506.498 118.355 506.859 117.944L508.577 119.663C507.967 120.273 507.257 120.746 506.448 121.082C505.638 121.418 504.698 121.586 503.628 121.586ZM515.959 121.605C515 121.605 514.104 121.431 513.269 121.082C512.447 120.734 511.725 120.254 511.103 119.644C510.493 119.021 510.013 118.299 509.665 117.477C509.316 116.643 509.142 115.753 509.142 114.807C509.142 113.86 509.31 112.982 509.646 112.173C509.995 111.351 510.474 110.635 511.084 110.025C511.707 109.403 512.429 108.923 513.251 108.587C514.072 108.238 514.963 108.064 515.921 108.064C516.893 108.064 517.789 108.238 518.611 108.587C519.433 108.923 520.149 109.403 520.759 110.025C521.381 110.635 521.867 111.351 522.216 112.173C522.564 112.995 522.739 113.879 522.739 114.825C522.739 115.772 522.564 116.656 522.216 117.477C521.867 118.299 521.381 119.021 520.759 119.644C520.149 120.254 519.433 120.734 518.611 121.082C517.802 121.431 516.918 121.605 515.959 121.605ZM515.921 119.233C516.768 119.233 517.503 119.046 518.125 118.673C518.748 118.299 519.234 117.782 519.582 117.123C519.943 116.463 520.124 115.691 520.124 114.807C520.124 114.159 520.024 113.568 519.825 113.032C519.626 112.497 519.339 112.036 518.966 111.65C518.592 111.252 518.15 110.947 517.64 110.735C517.129 110.523 516.556 110.417 515.921 110.417C515.1 110.417 514.371 110.604 513.736 110.978C513.114 111.339 512.622 111.849 512.261 112.509C511.912 113.169 511.738 113.935 511.738 114.807C511.738 115.466 511.837 116.07 512.037 116.618C512.248 117.166 512.535 117.633 512.896 118.019C513.269 118.405 513.711 118.704 514.222 118.916C514.745 119.127 515.311 119.233 515.921 119.233ZM524.752 121.4V108.27H526.527L527.292 110.81V121.4H524.752ZM533.829 121.4L526.041 111.314L526.527 108.27L534.315 118.355L533.829 121.4ZM533.829 121.4L533.101 118.934V108.27H535.66V121.4H533.829ZM541.572 121.4V108.55H544.131V121.4H541.572ZM537.389 110.529V108.27H548.315V110.529H537.389ZM551.936 115.909V113.929H554.981C555.603 113.929 556.083 113.773 556.419 113.462C556.768 113.138 556.942 112.696 556.942 112.136C556.942 111.625 556.768 111.202 556.419 110.866C556.083 110.517 555.603 110.343 554.981 110.343H551.936V108.27H555.205C556.052 108.27 556.793 108.438 557.428 108.774C558.075 109.098 558.573 109.546 558.922 110.119C559.283 110.691 559.463 111.351 559.463 112.098C559.463 112.87 559.283 113.543 558.922 114.116C558.573 114.676 558.075 115.118 557.428 115.442C556.78 115.753 556.027 115.909 555.168 115.909H551.936ZM550.069 121.4V108.27H552.609V121.4H550.069ZM557.241 121.4L552.908 115.722L555.242 114.993L560.323 121.4H557.241ZM560.37 121.4L565.655 108.27H567.728L572.995 121.4H570.287L566.216 110.623H567.149L563.022 121.4H560.37ZM563.171 118.953V116.824H570.231V118.953H563.171ZM579.887 121.586C578.928 121.586 578.038 121.418 577.216 121.082C576.394 120.734 575.672 120.254 575.05 119.644C574.44 119.021 573.966 118.299 573.63 117.477C573.307 116.656 573.145 115.772 573.145 114.825C573.145 113.879 573.307 112.995 573.63 112.173C573.966 111.351 574.44 110.635 575.05 110.025C575.672 109.415 576.388 108.936 577.198 108.587C578.019 108.238 578.916 108.064 579.887 108.064C580.933 108.064 581.854 108.238 582.651 108.587C583.448 108.923 584.152 109.39 584.762 109.988L583.044 111.706C582.683 111.308 582.24 110.996 581.718 110.772C581.195 110.548 580.584 110.436 579.887 110.436C579.277 110.436 578.717 110.542 578.206 110.754C577.708 110.953 577.272 111.252 576.899 111.65C576.525 112.036 576.239 112.503 576.04 113.051C575.84 113.586 575.741 114.178 575.741 114.825C575.741 115.485 575.84 116.083 576.04 116.618C576.239 117.154 576.525 117.621 576.899 118.019C577.272 118.405 577.708 118.704 578.206 118.916C578.717 119.127 579.277 119.233 579.887 119.233C580.622 119.233 581.251 119.121 581.774 118.897C582.309 118.673 582.757 118.355 583.118 117.944L584.837 119.663C584.227 120.273 583.517 120.746 582.707 121.082C581.898 121.418 580.958 121.586 579.887 121.586ZM589.615 121.4V108.55H592.174V121.4H589.615ZM585.432 110.529V108.27H596.358V110.529H585.432ZM598.112 121.4V108.27H600.652V121.4H598.112ZM603.346 121.4V108.27H605.121L605.887 110.81V121.4H603.346ZM612.424 121.4L604.635 111.314L605.121 108.27L612.909 118.355L612.424 121.4ZM612.424 121.4L611.695 118.934V108.27H614.254V121.4H612.424ZM622.987 121.586C622.053 121.586 621.175 121.418 620.353 121.082C619.544 120.734 618.828 120.248 618.205 119.625C617.595 119.003 617.116 118.287 616.767 117.477C616.431 116.656 616.263 115.772 616.263 114.825C616.263 113.866 616.437 112.982 616.786 112.173C617.135 111.351 617.62 110.635 618.243 110.025C618.865 109.403 619.594 108.923 620.428 108.587C621.262 108.238 622.165 108.064 623.136 108.064C624.22 108.064 625.216 108.27 626.125 108.68C627.034 109.079 627.787 109.645 628.385 110.38L626.666 112.098C626.255 111.563 625.745 111.152 625.135 110.866C624.525 110.579 623.852 110.436 623.118 110.436C622.283 110.436 621.542 110.623 620.895 110.996C620.26 111.357 619.762 111.868 619.401 112.528C619.04 113.175 618.859 113.935 618.859 114.807C618.859 115.678 619.033 116.45 619.382 117.123C619.743 117.782 620.229 118.299 620.839 118.673C621.462 119.046 622.171 119.233 622.968 119.233C623.79 119.233 624.493 119.084 625.079 118.785C625.664 118.474 626.112 118.025 626.423 117.44C626.735 116.842 626.89 116.114 626.89 115.255L628.553 116.394L622.819 116.338V114.134H629.505V114.489C629.505 116.058 629.225 117.372 628.665 118.43C628.104 119.476 627.332 120.267 626.349 120.802C625.378 121.325 624.257 121.586 622.987 121.586ZM641.19 121.586C640.232 121.586 639.341 121.418 638.519 121.082C637.698 120.734 636.975 120.254 636.353 119.644C635.743 119.021 635.27 118.299 634.933 117.477C634.61 116.656 634.448 115.772 634.448 114.825C634.448 113.879 634.61 112.995 634.933 112.173C635.27 111.351 635.743 110.635 636.353 110.025C636.975 109.415 637.691 108.936 638.501 108.587C639.323 108.238 640.219 108.064 641.19 108.064C642.236 108.064 643.158 108.238 643.955 108.587C644.751 108.923 645.455 109.39 646.065 109.988L644.347 111.706C643.986 111.308 643.544 110.996 643.021 110.772C642.498 110.548 641.888 110.436 641.19 110.436C640.58 110.436 640.02 110.542 639.509 110.754C639.011 110.953 638.576 111.252 638.202 111.65C637.828 112.036 637.542 112.503 637.343 113.051C637.144 113.586 637.044 114.178 637.044 114.825C637.044 115.485 637.144 116.083 637.343 116.618C637.542 117.154 637.828 117.621 638.202 118.019C638.576 118.405 639.011 118.704 639.509 118.916C640.02 119.127 640.58 119.233 641.19 119.233C641.925 119.233 642.554 119.121 643.077 118.897C643.612 118.673 644.06 118.355 644.422 117.944L646.14 119.663C645.53 120.273 644.82 120.746 644.011 121.082C643.201 121.418 642.261 121.586 641.19 121.586ZM653.522 121.605C652.563 121.605 651.666 121.431 650.832 121.082C650.01 120.734 649.288 120.254 648.665 119.644C648.055 119.021 647.576 118.299 647.227 117.477C646.879 116.643 646.704 115.753 646.704 114.807C646.704 113.86 646.872 112.982 647.209 112.173C647.557 111.351 648.037 110.635 648.647 110.025C649.269 109.403 649.992 108.923 650.813 108.587C651.635 108.238 652.525 108.064 653.484 108.064C654.455 108.064 655.352 108.238 656.174 108.587C656.996 108.923 657.712 109.403 658.322 110.025C658.944 110.635 659.43 111.351 659.778 112.173C660.127 112.995 660.301 113.879 660.301 114.825C660.301 115.772 660.127 116.656 659.778 117.477C659.43 118.299 658.944 119.021 658.322 119.644C657.712 120.254 656.996 120.734 656.174 121.082C655.364 121.431 654.48 121.605 653.522 121.605ZM653.484 119.233C654.331 119.233 655.066 119.046 655.688 118.673C656.311 118.299 656.796 117.782 657.145 117.123C657.506 116.463 657.687 115.691 657.687 114.807C657.687 114.159 657.587 113.568 657.388 113.032C657.189 112.497 656.902 112.036 656.529 111.65C656.155 111.252 655.713 110.947 655.203 110.735C654.692 110.523 654.119 110.417 653.484 110.417C652.662 110.417 651.934 110.604 651.299 110.978C650.676 111.339 650.185 111.849 649.823 112.509C649.475 113.169 649.301 113.935 649.301 114.807C649.301 115.466 649.4 116.07 649.599 116.618C649.811 117.166 650.097 117.633 650.459 118.019C650.832 118.405 651.274 118.704 651.785 118.916C652.308 119.127 652.874 119.233 653.484 119.233ZM662.315 121.4V108.27H664.108L669.431 116.786H668.404L673.708 108.27H675.501V121.4H672.98V112.621L673.465 112.771L669.767 118.71H668.049L664.351 112.771L664.855 112.621V121.4H662.315ZM680.051 116.525V114.452H683.096C683.494 114.452 683.855 114.371 684.179 114.209C684.503 114.047 684.758 113.817 684.945 113.518C685.131 113.207 685.225 112.833 685.225 112.397C685.225 111.974 685.131 111.607 684.945 111.295C684.758 110.984 684.503 110.747 684.179 110.585C683.855 110.424 683.494 110.343 683.096 110.343H680.051V108.27H683.357C684.191 108.27 684.938 108.438 685.598 108.774C686.271 109.11 686.8 109.589 687.186 110.212C687.572 110.822 687.765 111.55 687.765 112.397C687.765 113.244 687.572 113.979 687.186 114.601C686.8 115.211 686.271 115.684 685.598 116.021C684.938 116.357 684.191 116.525 683.357 116.525H680.051ZM678.183 121.4V108.27H680.724V121.4H678.183ZM687.609 121.4L692.894 108.27H694.968L700.235 121.4H697.526L693.455 110.623H694.389L690.261 121.4H687.609ZM690.41 118.953V116.824H697.47V118.953H690.41ZM701.785 121.4V108.27H703.56L704.325 110.81V121.4H701.785ZM710.863 121.4L703.074 111.314L703.56 108.27L711.348 118.355L710.863 121.4ZM710.863 121.4L710.134 118.934V108.27H712.693V121.4H710.863ZM719.427 116.338L714.347 108.27H717.279L721.22 114.732H719.539L723.48 108.27H726.375L721.239 116.338H719.427ZM719.091 121.4V114.975H721.65V121.4H719.091Z" fill="url(#paint2_linear_252_532)"/>
<path d="M203.376 152.266L203.944 149.209C205.356 149.209 206.586 149.172 207.635 149.1C208.683 149.012 209.549 148.889 210.233 148.728C210.932 148.554 211.449 148.328 211.784 148.051C212.133 147.775 212.308 147.44 212.308 147.047C212.308 146.523 212.22 145.897 212.046 145.169C211.871 144.427 211.645 143.677 211.369 142.92L214.229 142.09C214.418 142.585 214.6 143.131 214.775 143.728C214.95 144.31 215.088 144.9 215.19 145.497C215.307 146.079 215.365 146.625 215.365 147.134C215.365 148.037 215.168 148.816 214.775 149.471C214.382 150.111 213.727 150.643 212.81 151.065C211.907 151.473 210.684 151.771 209.141 151.96C207.598 152.164 205.676 152.266 203.376 152.266ZM203.355 152.266C201.782 152.266 200.45 152.142 199.358 151.895C198.281 151.662 197.4 151.327 196.716 150.89C196.046 150.439 195.559 149.915 195.253 149.318C194.947 148.721 194.794 148.066 194.794 147.353C194.794 146.887 194.831 146.421 194.904 145.955C194.991 145.475 195.093 145.009 195.209 144.558C195.34 144.106 195.457 143.699 195.559 143.335L198.288 143.968C198.23 144.23 198.165 144.514 198.092 144.82C198.019 145.125 197.961 145.424 197.917 145.715C197.873 145.992 197.852 146.246 197.852 146.479C197.852 147.018 198.041 147.498 198.419 147.92C198.812 148.328 199.453 148.648 200.341 148.881C201.229 149.1 202.423 149.209 203.922 149.209L204.359 151.567L203.355 152.266ZM206.958 142.287C206.535 142.287 206.171 142.141 205.866 141.85C205.575 141.544 205.429 141.187 205.429 140.78C205.429 140.358 205.575 139.994 205.866 139.688C206.171 139.382 206.535 139.229 206.958 139.229C207.365 139.229 207.715 139.382 208.006 139.688C208.297 139.994 208.442 140.358 208.442 140.78C208.442 141.187 208.297 141.544 208.006 141.85C207.715 142.141 207.365 142.287 206.958 142.287ZM203.18 142.265C202.758 142.265 202.394 142.119 202.088 141.828C201.797 141.522 201.651 141.166 201.651 140.758C201.651 140.336 201.797 139.972 202.088 139.666C202.394 139.36 202.758 139.208 203.18 139.208C203.587 139.208 203.937 139.36 204.228 139.666C204.519 139.972 204.665 140.336 204.665 140.758C204.665 141.166 204.519 141.522 204.228 141.828C203.937 142.119 203.587 142.265 203.18 142.265ZM225.069 140.103C225.069 139.622 225.04 139.142 224.982 138.662C224.938 138.181 224.88 137.73 224.807 137.308C224.734 136.871 224.669 136.492 224.611 136.172L227.668 135.735C227.726 136.027 227.784 136.412 227.843 136.893C227.901 137.373 227.952 137.883 227.995 138.421C228.039 138.945 228.061 139.448 228.061 139.928C228.061 140.685 227.995 141.398 227.864 142.068C227.733 142.738 227.537 143.371 227.275 143.968C227.013 144.55 226.685 145.111 226.292 145.649L225.899 146.173C225.521 146.639 225.077 147.098 224.567 147.549C224.072 148 223.526 148.437 222.929 148.859H224.349C224.844 148.859 225.222 148.83 225.484 148.772C225.746 148.714 225.921 148.634 226.008 148.532C226.11 148.415 226.161 148.284 226.161 148.139C226.161 147.877 225.936 147.491 225.484 146.981C225.033 146.457 224.407 145.86 223.606 145.191C222.806 144.507 221.867 143.786 220.789 143.029C219.727 142.257 218.577 141.486 217.339 140.714L218.933 138.378C220.651 139.44 222.1 140.416 223.279 141.304C224.472 142.192 225.448 143 226.205 143.728C226.976 144.456 227.573 145.118 227.995 145.715C228.418 146.312 228.709 146.85 228.869 147.331C229.029 147.797 229.109 148.219 229.109 148.597C229.109 149.02 229.044 149.427 228.913 149.82C228.782 150.199 228.57 150.541 228.279 150.847C227.988 151.138 227.61 151.371 227.144 151.545C226.678 151.72 226.103 151.807 225.419 151.807H218.999V148.881C220.498 147.804 221.685 146.785 222.558 145.824C223.446 144.863 224.087 143.917 224.48 142.985C224.873 142.054 225.069 141.093 225.069 140.103ZM231.508 156.83L230.874 153.773C231.908 153.642 232.811 153.482 233.582 153.292C234.354 153.118 235.001 152.87 235.526 152.55C236.05 152.23 236.443 151.793 236.705 151.24C236.967 150.672 237.098 149.944 237.098 149.056C237.098 148.736 237.069 148.415 237.01 148.095C236.952 147.76 236.865 147.455 236.748 147.178C236.632 146.901 236.479 146.676 236.29 146.501C236.115 146.326 235.904 146.239 235.657 146.239C235.395 146.239 235.162 146.334 234.958 146.523C234.754 146.698 234.594 146.923 234.477 147.2C234.361 147.462 234.303 147.731 234.303 148.008C234.303 148.212 234.354 148.386 234.456 148.532C234.557 148.663 234.71 148.765 234.914 148.838C235.118 148.896 235.373 148.925 235.678 148.925C236.028 148.925 236.384 148.889 236.748 148.816C237.127 148.728 237.469 148.612 237.775 148.466L237.862 150.847C237.513 151.123 237.112 151.371 236.661 151.589C236.21 151.793 235.664 151.895 235.023 151.895C234.499 151.895 234.012 151.836 233.56 151.72C233.109 151.589 232.709 151.392 232.359 151.13C232.024 150.868 231.762 150.534 231.573 150.126C231.384 149.704 231.289 149.202 231.289 148.619C231.289 147.906 231.406 147.214 231.639 146.545C231.872 145.875 232.192 145.278 232.599 144.754C233.022 144.215 233.502 143.793 234.041 143.488C234.594 143.167 235.176 143.007 235.788 143.007C236.516 143.007 237.149 143.189 237.687 143.553C238.241 143.917 238.699 144.397 239.063 144.994C239.427 145.577 239.704 146.21 239.893 146.894C240.082 147.578 240.177 148.233 240.177 148.859C240.177 150.504 239.827 151.902 239.129 153.052C238.43 154.202 237.433 155.09 236.137 155.716C234.841 156.357 233.298 156.728 231.508 156.83ZM248.061 151.917C246.707 151.917 245.659 151.778 244.916 151.502C244.189 151.225 243.679 150.796 243.388 150.213C243.097 149.616 242.929 148.867 242.886 147.964L242.427 135.823H245.484L245.943 146.501C245.972 147.171 246.045 147.673 246.161 148.008C246.278 148.343 246.496 148.568 246.816 148.685C247.151 148.801 247.639 148.859 248.279 148.859C248.832 148.859 249.226 149.005 249.458 149.296C249.706 149.573 249.83 149.922 249.83 150.344C249.83 150.796 249.677 151.174 249.371 151.48C249.065 151.771 248.629 151.917 248.061 151.917ZM248.091 151.917L248.309 148.881C248.877 148.896 249.401 148.889 249.881 148.859C250.362 148.83 250.791 148.787 251.17 148.728C251.563 148.67 251.905 148.605 252.196 148.532C252.502 148.459 252.756 148.394 252.96 148.335C253.455 148.175 253.877 147.986 254.227 147.768C254.576 147.535 254.845 147.273 255.035 146.981C255.224 146.69 255.319 146.377 255.319 146.042C255.319 145.78 255.26 145.518 255.144 145.256C255.042 144.98 254.889 144.754 254.685 144.579C254.482 144.405 254.241 144.317 253.965 144.317C253.703 144.317 253.462 144.397 253.244 144.558C253.026 144.718 252.851 144.936 252.72 145.213C252.589 145.475 252.523 145.78 252.523 146.13C252.523 146.436 252.596 146.727 252.742 147.003C252.887 147.265 253.091 147.52 253.353 147.768C253.615 148.015 253.928 148.248 254.292 148.466L251.388 149.58C251.068 149.274 250.762 148.947 250.471 148.597C250.194 148.248 249.961 147.855 249.772 147.418C249.597 146.967 249.51 146.465 249.51 145.911C249.51 145.242 249.641 144.63 249.903 144.077C250.165 143.524 250.514 143.051 250.951 142.658C251.388 142.25 251.876 141.937 252.414 141.719C252.953 141.5 253.492 141.391 254.03 141.391C254.904 141.391 255.661 141.595 256.301 142.003C256.942 142.41 257.437 142.942 257.786 143.597C258.15 144.252 258.332 144.965 258.332 145.737C258.332 146.45 258.201 147.091 257.939 147.658C257.677 148.212 257.32 148.707 256.869 149.143C256.432 149.565 255.945 149.937 255.406 150.257C254.882 150.577 254.35 150.847 253.812 151.065C253.55 151.181 253.222 151.291 252.829 151.392C252.436 151.494 251.992 151.589 251.497 151.676C251.002 151.749 250.471 151.807 249.903 151.851C249.335 151.895 248.731 151.917 248.091 151.917ZM259.62 151.917C258.776 151.917 257.946 151.873 257.131 151.786C256.316 151.698 255.559 151.567 254.86 151.392C254.176 151.218 253.579 151.007 253.069 150.759L254.576 148.401C255.013 148.517 255.522 148.612 256.105 148.685C256.702 148.743 257.32 148.787 257.961 148.816C258.616 148.845 259.242 148.859 259.839 148.859C260.392 148.859 260.785 149.005 261.018 149.296C261.265 149.573 261.389 149.922 261.389 150.344C261.389 150.796 261.236 151.174 260.931 151.48C260.625 151.771 260.188 151.917 259.62 151.917ZM255.952 139.404C255.53 139.404 255.166 139.258 254.86 138.967C254.569 138.662 254.423 138.305 254.423 137.897C254.423 137.475 254.569 137.111 254.86 136.805C255.166 136.5 255.53 136.347 255.952 136.347C256.359 136.347 256.709 136.5 257 136.805C257.291 137.111 257.437 137.475 257.437 137.897C257.437 138.305 257.291 138.662 257 138.967C256.709 139.258 256.359 139.404 255.952 139.404ZM252.174 139.382C251.752 139.382 251.388 139.237 251.082 138.945C250.791 138.64 250.646 138.283 250.646 137.875C250.646 137.453 250.791 137.089 251.082 136.784C251.388 136.478 251.752 136.325 252.174 136.325C252.582 136.325 252.931 136.478 253.222 136.784C253.513 137.089 253.659 137.453 253.659 137.875C253.659 138.283 253.513 138.64 253.222 138.945C252.931 139.237 252.582 139.382 252.174 139.382ZM259.649 151.917L259.867 148.859C260.231 148.859 260.508 148.787 260.697 148.641C260.886 148.495 261.075 148.241 261.265 147.877C261.454 147.513 261.716 147.018 262.051 146.392C262.415 145.693 262.793 145.111 263.186 144.645C263.579 144.164 263.972 143.786 264.366 143.509C264.773 143.218 265.173 143.014 265.567 142.898C265.974 142.767 266.374 142.701 266.768 142.701C267.306 142.701 267.808 142.818 268.274 143.051C268.755 143.269 269.213 143.655 269.65 144.208C270.087 144.747 270.502 145.489 270.895 146.436C271.171 147.091 271.448 147.593 271.725 147.942C272.001 148.292 272.285 148.532 272.576 148.663C272.882 148.794 273.188 148.859 273.493 148.859C274.046 148.859 274.44 149.005 274.672 149.296C274.905 149.573 275.022 149.922 275.022 150.344C275.022 150.796 274.869 151.174 274.563 151.48C274.258 151.771 273.828 151.917 273.275 151.917C272.562 151.917 271.914 151.8 271.331 151.567C270.749 151.334 270.291 150.985 269.956 150.519L270.589 150.039C270.458 150.344 270.261 150.665 269.999 150.999C269.752 151.334 269.424 151.618 269.017 151.851C268.624 152.084 268.151 152.2 267.597 152.2C267.233 152.2 266.804 152.128 266.309 151.982C265.829 151.851 265.326 151.625 264.802 151.305C264.293 150.97 263.82 150.519 263.383 149.951C263.106 150.461 262.801 150.861 262.466 151.152C262.131 151.429 261.738 151.625 261.287 151.742C260.835 151.858 260.289 151.917 259.649 151.917ZM264.649 147.375C264.795 147.593 264.97 147.811 265.173 148.03C265.377 148.248 265.603 148.445 265.85 148.619C266.098 148.779 266.36 148.91 266.637 149.012C266.928 149.114 267.212 149.165 267.488 149.165C267.779 149.165 268.02 149.056 268.209 148.838C268.398 148.605 268.405 148.263 268.231 147.811C268.158 147.622 268.056 147.411 267.925 147.178C267.808 146.93 267.67 146.698 267.51 146.479C267.364 146.261 267.197 146.079 267.008 145.933C266.833 145.788 266.651 145.715 266.462 145.715C266.273 145.715 266.076 145.773 265.872 145.89C265.668 146.006 265.465 146.188 265.261 146.436C265.057 146.668 264.853 146.981 264.649 147.375ZM273.275 151.917L273.494 148.859C274.178 148.859 274.658 148.794 274.935 148.663C275.226 148.517 275.401 148.255 275.459 147.877C275.517 147.484 275.532 146.916 275.503 146.173L275.153 135.823H278.254L278.625 146.152C278.655 146.88 278.742 147.44 278.887 147.833C279.033 148.226 279.273 148.495 279.608 148.641C279.957 148.787 280.423 148.859 281.006 148.859C281.559 148.859 281.952 149.005 282.185 149.296C282.418 149.573 282.534 149.922 282.534 150.344C282.534 150.796 282.381 151.174 282.076 151.48C281.77 151.771 281.34 151.917 280.787 151.917C280.147 151.917 279.55 151.844 278.997 151.698C278.443 151.553 277.985 151.276 277.621 150.868C277.257 150.461 277.017 149.871 276.9 149.1L277.861 149.121C277.614 149.878 277.293 150.461 276.9 150.868C276.507 151.261 276.012 151.538 275.415 151.698C274.833 151.844 274.12 151.917 273.275 151.917ZM280.782 151.917L281 148.859C281.67 148.859 282.15 148.794 282.441 148.663C282.733 148.517 282.907 148.255 282.966 147.877C283.024 147.484 283.038 146.916 283.009 146.173L282.616 135.823H285.695L286.132 146.392C286.161 147.236 286.125 148 286.023 148.685C285.935 149.354 285.71 149.929 285.346 150.41C284.996 150.89 284.45 151.261 283.708 151.523C282.98 151.786 282.005 151.917 280.782 151.917ZM303.671 151.917C302.637 151.917 301.742 151.786 300.985 151.523C300.243 151.247 299.667 150.81 299.26 150.213C298.852 149.602 298.619 148.787 298.561 147.768L298.168 138.967H301.247L301.618 146.698C301.647 147.294 301.742 147.753 301.902 148.073C302.077 148.379 302.324 148.59 302.645 148.707C302.965 148.808 303.38 148.859 303.889 148.859C304.442 148.859 304.836 149.005 305.068 149.296C305.301 149.573 305.418 149.922 305.418 150.344C305.418 150.796 305.265 151.174 304.959 151.48C304.668 151.771 304.239 151.917 303.671 151.917ZM299.675 149.886C298.699 150.104 297.76 150.206 296.858 150.191C295.955 150.162 295.147 150.002 294.434 149.711C293.721 149.405 293.153 148.969 292.731 148.401C292.323 147.833 292.119 147.112 292.119 146.239C292.119 145.467 292.287 144.769 292.621 144.143C292.971 143.502 293.451 142.942 294.063 142.461C294.689 141.981 295.417 141.573 296.246 141.238C297.076 140.904 297.979 140.649 298.954 140.474L299.26 143.575C298.634 143.604 298.066 143.691 297.557 143.837C297.062 143.968 296.632 144.143 296.268 144.361C295.919 144.579 295.65 144.827 295.46 145.103C295.271 145.366 295.176 145.649 295.176 145.955C295.176 146.203 295.264 146.406 295.438 146.567C295.613 146.727 295.846 146.858 296.137 146.96C296.428 147.047 296.763 147.098 297.142 147.112C297.52 147.127 297.906 147.105 298.299 147.047C298.707 146.989 299.107 146.894 299.5 146.763L299.675 149.886ZM299.74 136.718C299.318 136.718 298.954 136.573 298.648 136.281C298.357 135.976 298.212 135.619 298.212 135.211C298.212 134.789 298.357 134.425 298.648 134.12C298.954 133.814 299.318 133.661 299.74 133.661C300.148 133.661 300.497 133.814 300.788 134.12C301.08 134.425 301.225 134.789 301.225 135.211C301.225 135.619 301.08 135.976 300.788 136.281C300.497 136.573 300.148 136.718 299.74 136.718ZM295.963 136.696C295.54 136.696 295.176 136.551 294.871 136.26C294.58 135.954 294.434 135.597 294.434 135.19C294.434 134.767 294.58 134.403 294.871 134.098C295.176 133.792 295.54 133.639 295.963 133.639C296.37 133.639 296.72 133.792 297.011 134.098C297.302 134.403 297.447 134.767 297.447 135.19C297.447 135.597 297.302 135.954 297.011 136.26C296.72 136.551 296.37 136.696 295.963 136.696ZM303.664 151.917L303.882 148.859C304.406 148.859 304.857 148.808 305.236 148.707C305.614 148.605 305.935 148.401 306.197 148.095C306.459 147.775 306.677 147.309 306.852 146.698C307.041 146.086 307.208 145.271 307.354 144.252L310.215 144.732C310.185 144.951 310.142 145.205 310.084 145.497C310.04 145.788 309.996 146.086 309.953 146.392C309.923 146.683 309.909 146.96 309.909 147.222C309.909 147.484 309.96 147.717 310.062 147.92C310.164 148.124 310.324 148.299 310.542 148.445C310.775 148.576 311.074 148.677 311.437 148.75C311.816 148.823 312.275 148.859 312.813 148.859C313.366 148.859 313.759 149.005 313.992 149.296C314.225 149.573 314.342 149.922 314.342 150.344C314.342 150.796 314.189 151.174 313.883 151.48C313.592 151.771 313.163 151.917 312.595 151.917C311.94 151.917 311.343 151.866 310.804 151.764C310.28 151.662 309.822 151.494 309.428 151.261C309.05 151.014 308.737 150.694 308.489 150.301C308.257 149.893 308.111 149.398 308.053 148.816H309.101C308.839 149.515 308.504 150.075 308.096 150.497C307.703 150.905 307.259 151.211 306.764 151.414C306.269 151.618 305.753 151.749 305.214 151.807C304.69 151.88 304.173 151.917 303.664 151.917ZM309.756 156.983C309.334 156.983 308.97 156.83 308.664 156.524C308.373 156.233 308.227 155.884 308.227 155.476C308.227 155.054 308.373 154.69 308.664 154.384C308.97 154.078 309.334 153.926 309.756 153.926C310.164 153.926 310.513 154.078 310.804 154.384C311.095 154.69 311.241 155.054 311.241 155.476C311.241 155.884 311.095 156.233 310.804 156.524C310.513 156.83 310.164 156.983 309.756 156.983ZM305.978 156.983C305.556 156.983 305.192 156.83 304.886 156.524C304.595 156.233 304.45 155.884 304.45 155.476C304.45 155.054 304.595 154.69 304.886 154.384C305.192 154.078 305.556 153.926 305.978 153.926C306.386 153.926 306.735 154.078 307.026 154.384C307.318 154.69 307.463 155.054 307.463 155.476C307.463 155.884 307.318 156.233 307.026 156.524C306.735 156.83 306.386 156.983 305.978 156.983ZM312.599 151.917L312.817 148.859C313.181 148.859 313.458 148.787 313.647 148.641C313.836 148.495 314.025 148.241 314.215 147.877C314.404 147.513 314.666 147.018 315.001 146.392C315.365 145.693 315.743 145.111 316.136 144.645C316.529 144.164 316.922 143.786 317.315 143.509C317.723 143.218 318.123 143.014 318.517 142.898C318.924 142.767 319.324 142.701 319.718 142.701C320.256 142.701 320.758 142.818 321.224 143.051C321.705 143.269 322.163 143.655 322.6 144.208C323.037 144.747 323.452 145.489 323.845 146.436C324.121 147.091 324.398 147.593 324.674 147.942C324.951 148.292 325.235 148.532 325.526 148.663C325.832 148.794 326.138 148.859 326.443 148.859C326.996 148.859 327.39 149.005 327.622 149.296C327.855 149.573 327.972 149.922 327.972 150.344C327.972 150.796 327.819 151.174 327.513 151.48C327.208 151.771 326.778 151.917 326.225 151.917C325.512 151.917 324.864 151.8 324.281 151.567C323.699 151.334 323.241 150.985 322.906 150.519L323.539 150.039C323.408 150.344 323.211 150.665 322.949 150.999C322.702 151.334 322.374 151.618 321.967 151.851C321.574 152.084 321.101 152.2 320.547 152.2C320.183 152.2 319.754 152.128 319.259 151.982C318.779 151.851 318.276 151.625 317.752 151.305C317.243 150.97 316.77 150.519 316.333 149.951C316.056 150.461 315.751 150.861 315.416 151.152C315.081 151.429 314.688 151.625 314.236 151.742C313.785 151.858 313.239 151.917 312.599 151.917ZM317.599 147.375C317.745 147.593 317.92 147.811 318.123 148.03C318.327 148.248 318.553 148.445 318.8 148.619C319.048 148.779 319.31 148.91 319.587 149.012C319.878 149.114 320.162 149.165 320.438 149.165C320.729 149.165 320.97 149.056 321.159 148.838C321.348 148.605 321.355 148.263 321.181 147.811C321.108 147.622 321.006 147.411 320.875 147.178C320.758 146.93 320.62 146.698 320.46 146.479C320.314 146.261 320.147 146.079 319.958 145.933C319.783 145.788 319.601 145.715 319.412 145.715C319.223 145.715 319.026 145.773 318.822 145.89C318.618 146.006 318.415 146.188 318.211 146.436C318.007 146.668 317.803 146.981 317.599 147.375ZM326.225 151.917L326.444 148.859C327.113 148.859 327.594 148.794 327.885 148.663C328.176 148.517 328.351 148.255 328.409 147.877C328.467 147.484 328.482 146.916 328.453 146.173L328.06 135.823H331.139L331.575 146.392C331.605 147.236 331.568 148 331.466 148.685C331.379 149.354 331.153 149.929 330.789 150.41C330.44 150.89 329.894 151.261 329.152 151.523C328.424 151.786 327.448 151.917 326.225 151.917ZM339.63 151.917C338.277 151.917 337.228 151.778 336.486 151.502C335.758 151.225 335.249 150.796 334.957 150.213C334.666 149.616 334.499 148.867 334.455 147.964L333.997 135.823H337.054L337.512 146.501C337.541 147.171 337.614 147.673 337.731 148.008C337.847 148.343 338.066 148.568 338.386 148.685C338.721 148.801 339.208 148.859 339.849 148.859C340.402 148.859 340.795 149.005 341.028 149.296C341.276 149.573 341.399 149.922 341.399 150.344C341.399 150.796 341.246 151.174 340.941 151.48C340.635 151.771 340.198 151.917 339.63 151.917ZM339.573 151.917L339.791 148.859C340.81 148.859 341.727 148.794 342.543 148.663C343.358 148.517 344.071 148.328 344.683 148.095C345.309 147.862 345.825 147.593 346.233 147.287C346.655 146.981 346.968 146.661 347.172 146.326C347.39 145.977 347.5 145.635 347.5 145.3C347.5 145.111 347.449 144.936 347.347 144.776C347.259 144.601 347.107 144.463 346.888 144.361C346.67 144.245 346.371 144.186 345.993 144.186C345.804 144.186 345.578 144.208 345.316 144.252C345.054 144.296 344.792 144.361 344.53 144.448C344.268 144.521 344.02 144.623 343.787 144.754C344.093 144.987 344.428 145.285 344.792 145.649C345.156 145.999 345.52 146.37 345.884 146.763C346.248 147.142 346.561 147.513 346.823 147.877C347.128 148.008 347.463 148.139 347.827 148.27C348.206 148.386 348.613 148.488 349.05 148.576C349.487 148.663 349.945 148.736 350.426 148.794C350.906 148.838 351.401 148.859 351.911 148.859C352.464 148.859 352.857 149.005 353.09 149.296C353.337 149.573 353.461 149.922 353.461 150.344C353.461 150.796 353.308 151.174 353.002 151.48C352.697 151.771 352.26 151.917 351.692 151.917C350.528 151.917 349.494 151.829 348.591 151.655C347.689 151.465 346.881 151.196 346.168 150.847C345.469 150.483 344.814 150.046 344.202 149.536C344.028 149.231 343.78 148.903 343.46 148.554C343.154 148.19 342.826 147.84 342.477 147.506C342.142 147.171 341.837 146.894 341.56 146.676C341.487 146.617 341.4 146.465 341.298 146.217C341.211 145.955 341.131 145.686 341.058 145.409C340.985 145.118 340.949 144.914 340.949 144.798C340.949 144.463 341.101 144.106 341.407 143.728C341.727 143.349 342.15 143 342.674 142.68C343.212 142.345 343.802 142.075 344.442 141.872C345.098 141.653 345.76 141.544 346.43 141.544C347.332 141.544 348.082 141.682 348.679 141.959C349.29 142.221 349.749 142.592 350.054 143.073C350.36 143.539 350.513 144.084 350.513 144.71C350.513 145.409 350.36 146.108 350.054 146.807C349.749 147.491 349.297 148.139 348.701 148.75C348.118 149.362 347.383 149.908 346.495 150.388C345.622 150.854 344.603 151.225 343.438 151.502C342.288 151.778 340.999 151.917 339.573 151.917ZM351.709 151.917L351.927 148.859C352.597 148.859 353.077 148.794 353.368 148.663C353.66 148.517 353.834 148.255 353.892 147.877C353.951 147.484 353.965 146.916 353.936 146.173L353.543 135.823H356.622L357.059 146.392C357.088 147.236 357.052 148 356.95 148.685C356.862 149.354 356.637 149.929 356.273 150.41C355.923 150.89 355.377 151.261 354.635 151.523C353.907 151.786 352.932 151.917 351.709 151.917ZM359.939 151.807L359.48 135.823H362.537L362.996 151.807H359.939ZM369.192 150.934L370.262 148.161C370.801 148.394 371.317 148.568 371.812 148.685C372.307 148.801 372.802 148.859 373.297 148.859C373.807 148.859 374.229 148.816 374.564 148.728C374.913 148.626 375.175 148.481 375.35 148.292C375.525 148.102 375.612 147.877 375.612 147.615C375.612 147.367 375.532 147.025 375.372 146.588C375.226 146.152 374.957 145.584 374.564 144.885C374.171 144.172 373.596 143.291 372.839 142.243L375.437 140.518C376.136 141.508 376.74 142.476 377.25 143.422C377.759 144.354 378.152 145.227 378.429 146.042C378.72 146.843 378.866 147.549 378.866 148.161C378.866 148.918 378.662 149.58 378.254 150.148C377.861 150.701 377.271 151.138 376.485 151.458C375.714 151.778 374.76 151.938 373.625 151.938C373.203 151.938 372.729 151.902 372.205 151.829C371.681 151.756 371.15 151.647 370.611 151.502C370.087 151.356 369.614 151.167 369.192 150.934ZM379.397 156.83L378.283 154.035C379.535 153.598 380.547 153.118 381.318 152.593C382.105 152.069 382.68 151.509 383.044 150.912C383.422 150.315 383.611 149.696 383.611 149.056C383.611 148.648 383.553 148.226 383.437 147.789C383.32 147.338 383.153 146.865 382.934 146.37C382.731 145.875 382.483 145.358 382.192 144.82L385.053 143.444C385.562 144.419 385.955 145.351 386.232 146.239C386.523 147.127 386.668 147.957 386.668 148.728C386.668 149.442 386.574 150.126 386.385 150.781C386.21 151.436 385.933 152.048 385.555 152.615C385.191 153.198 384.718 153.744 384.135 154.253C383.553 154.763 382.869 155.228 382.083 155.651C381.297 156.087 380.401 156.48 379.397 156.83ZM389.73 151.807L389.271 135.823H392.328L392.787 151.807H389.73ZM395.198 156.83L394.565 153.773C395.599 153.642 396.501 153.482 397.273 153.292C398.044 153.118 398.692 152.87 399.216 152.55C399.74 152.23 400.133 151.793 400.395 151.24C400.658 150.672 400.789 149.944 400.789 149.056C400.789 148.197 400.658 147.513 400.395 147.003C400.133 146.494 399.784 146.239 399.347 146.239C399.042 146.239 398.787 146.348 398.583 146.567C398.379 146.77 398.226 147.018 398.124 147.309C398.037 147.586 397.993 147.833 397.993 148.051C397.993 148.182 398.03 148.321 398.103 148.466C398.175 148.612 398.336 148.736 398.583 148.838C398.83 148.939 399.216 148.998 399.74 149.012C400.279 149.027 401.007 148.976 401.924 148.859H405.593C406.146 148.859 406.539 149.005 406.772 149.296C407.019 149.573 407.143 149.922 407.143 150.344C407.143 150.796 406.99 151.174 406.684 151.48C406.379 151.771 405.942 151.917 405.374 151.917H399.369C398.452 151.917 397.666 151.807 397.011 151.589C396.356 151.371 395.853 151.021 395.504 150.541C395.155 150.046 394.98 149.391 394.98 148.576C394.98 147.92 395.089 147.265 395.307 146.61C395.54 145.955 395.861 145.358 396.268 144.82C396.676 144.266 397.149 143.83 397.688 143.509C398.241 143.175 398.838 143.007 399.478 143.007C400.352 143.007 401.116 143.276 401.771 143.815C402.426 144.354 402.936 145.067 403.3 145.955C403.678 146.843 403.868 147.811 403.868 148.859C403.868 150.504 403.518 151.902 402.819 153.052C402.121 154.202 401.123 155.09 399.828 155.716C398.532 156.357 396.989 156.728 395.198 156.83ZM405.405 151.917L405.624 148.859C405.987 148.859 406.264 148.787 406.453 148.641C406.643 148.495 406.832 148.241 407.021 147.877C407.21 147.513 407.472 147.018 407.807 146.392C408.171 145.693 408.55 145.111 408.943 144.645C409.336 144.164 409.729 143.786 410.122 143.509C410.53 143.218 410.93 143.014 411.323 142.898C411.731 142.767 412.131 142.701 412.524 142.701C413.063 142.701 413.565 142.818 414.031 143.051C414.511 143.269 414.97 143.655 415.406 144.208C415.843 144.747 416.258 145.489 416.651 146.436C416.928 147.091 417.204 147.593 417.481 147.942C417.757 148.292 418.041 148.532 418.333 148.663C418.638 148.794 418.944 148.859 419.25 148.859C419.803 148.859 420.196 149.005 420.429 149.296C420.662 149.573 420.778 149.922 420.778 150.344C420.778 150.796 420.625 151.174 420.32 151.48C420.014 151.771 419.585 151.917 419.031 151.917C418.318 151.917 417.67 151.8 417.088 151.567C416.506 151.334 416.047 150.985 415.712 150.519L416.345 150.039C416.214 150.344 416.018 150.665 415.756 150.999C415.508 151.334 415.181 151.618 414.773 151.851C414.38 152.084 413.907 152.2 413.354 152.2C412.99 152.2 412.56 152.128 412.065 151.982C411.585 151.851 411.083 151.625 410.559 151.305C410.049 150.97 409.576 150.519 409.139 149.951C408.863 150.461 408.557 150.861 408.222 151.152C407.887 151.429 407.494 151.625 407.043 151.742C406.592 151.858 406.046 151.917 405.405 151.917ZM410.406 147.375C410.551 147.593 410.726 147.811 410.93 148.03C411.134 148.248 411.359 148.445 411.607 148.619C411.854 148.779 412.116 148.91 412.393 149.012C412.684 149.114 412.968 149.165 413.245 149.165C413.536 149.165 413.776 149.056 413.965 148.838C414.154 148.605 414.162 148.263 413.987 147.811C413.914 147.622 413.812 147.411 413.681 147.178C413.565 146.93 413.427 146.698 413.266 146.479C413.121 146.261 412.953 146.079 412.764 145.933C412.589 145.788 412.407 145.715 412.218 145.715C412.029 145.715 411.832 145.773 411.629 145.89C411.425 146.006 411.221 146.188 411.017 146.436C410.813 146.668 410.61 146.981 410.406 147.375ZM419.032 151.917L419.25 148.859C419.92 148.859 420.4 148.794 420.691 148.663C420.983 148.517 421.157 148.255 421.215 147.877C421.274 147.484 421.288 146.916 421.259 146.173L420.866 135.823H423.945L424.382 146.392C424.411 147.236 424.375 148 424.273 148.685C424.185 149.354 423.96 149.929 423.596 150.41C423.246 150.89 422.7 151.261 421.958 151.523C421.23 151.786 420.255 151.917 419.032 151.917ZM427.262 151.807L426.803 135.823H429.86L430.319 151.807H427.262ZM467.217 151.917C466.475 151.917 465.762 151.851 465.077 151.72C464.393 151.574 463.775 151.385 463.221 151.152C462.683 150.919 462.239 150.657 461.889 150.366L463.855 148.248C464.379 148.466 464.917 148.626 465.471 148.728C466.024 148.816 466.679 148.859 467.436 148.859C467.989 148.859 468.382 149.005 468.615 149.296C468.862 149.573 468.986 149.922 468.986 150.344C468.986 150.796 468.833 151.174 468.528 151.48C468.222 151.771 467.785 151.917 467.217 151.917ZM443.219 156.852C442.243 156.852 441.334 156.728 440.489 156.48C439.659 156.248 438.932 155.891 438.306 155.41C437.68 154.945 437.192 154.355 436.842 153.642C436.493 152.943 436.318 152.128 436.318 151.196C436.318 150.861 436.347 150.468 436.406 150.017C436.464 149.565 436.573 149.056 436.733 148.488C436.893 147.906 437.134 147.258 437.454 146.545L440.14 147.484C439.98 147.935 439.841 148.35 439.725 148.728C439.608 149.092 439.521 149.434 439.463 149.755C439.405 150.06 439.376 150.366 439.376 150.672C439.376 151.254 439.528 151.778 439.834 152.244C440.154 152.725 440.606 153.103 441.188 153.38C441.785 153.656 442.491 153.795 443.306 153.795C444.092 153.795 444.769 153.714 445.337 153.554C445.905 153.394 446.371 153.154 446.735 152.834C447.113 152.528 447.39 152.149 447.564 151.698C447.739 151.232 447.826 150.701 447.826 150.104C447.826 149.478 447.71 148.743 447.477 147.899C447.244 147.054 446.982 146.123 446.691 145.103L449.748 144.317C449.894 144.871 450.01 145.351 450.097 145.759C450.199 146.152 450.279 146.479 450.338 146.741C450.41 146.989 450.476 147.185 450.534 147.331C450.651 147.637 450.818 147.899 451.036 148.117C451.255 148.321 451.575 148.495 451.997 148.641C452.434 148.772 453.016 148.874 453.744 148.947C454.472 149.005 455.411 149.034 456.561 149.034C457.522 149.034 458.352 149.005 459.05 148.947C459.764 148.874 460.361 148.779 460.841 148.663C461.336 148.532 461.729 148.379 462.02 148.204C462.326 148.03 462.544 147.833 462.675 147.615C462.821 147.382 462.894 147.134 462.894 146.872C462.894 146.61 462.828 146.355 462.697 146.108C462.581 145.86 462.384 145.657 462.108 145.497C461.831 145.336 461.474 145.256 461.038 145.256C460.47 145.256 459.902 145.395 459.334 145.671C458.767 145.948 458.213 146.312 457.675 146.763C457.151 147.2 456.663 147.666 456.212 148.161C455.775 148.656 455.389 149.121 455.054 149.558L451.932 149.187C452.354 148.503 452.827 147.826 453.351 147.156C453.89 146.472 454.465 145.831 455.076 145.234C455.688 144.638 456.328 144.114 456.998 143.662C457.682 143.211 458.388 142.854 459.116 142.592C459.844 142.33 460.579 142.199 461.322 142.199C462.297 142.199 463.127 142.396 463.811 142.789C464.495 143.167 465.019 143.691 465.383 144.361C465.762 145.031 465.951 145.795 465.951 146.654C465.951 147.455 465.784 148.19 465.449 148.859C465.128 149.515 464.604 150.09 463.876 150.585C463.163 151.065 462.224 151.436 461.059 151.698C459.895 151.96 458.483 152.091 456.823 152.091C455.993 152.091 455.178 152.04 454.377 151.938C453.591 151.851 452.871 151.713 452.216 151.523C451.56 151.334 451.007 151.101 450.556 150.825C450.105 150.534 449.799 150.199 449.639 149.82L450.862 150.497C450.818 151.487 450.607 152.375 450.228 153.161C449.85 153.947 449.326 154.61 448.656 155.148C448.001 155.702 447.215 156.124 446.298 156.415C445.381 156.706 444.354 156.852 443.219 156.852ZM481.529 151.917C480.859 151.917 480.233 151.866 479.651 151.764C479.083 151.662 478.559 151.487 478.079 151.24C477.598 150.978 477.169 150.621 476.79 150.17C476.426 149.718 476.121 149.151 475.873 148.466L477.598 147.091C477.86 147.556 478.181 147.92 478.559 148.182C478.938 148.43 479.389 148.605 479.913 148.707C480.437 148.808 481.049 148.859 481.747 148.859C482.3 148.859 482.694 149.005 482.926 149.296C483.159 149.573 483.276 149.922 483.276 150.344C483.276 150.796 483.123 151.174 482.817 151.48C482.526 151.771 482.097 151.917 481.529 151.917ZM467.248 151.917L467.466 148.859C468.252 148.859 469.031 148.816 469.803 148.728C470.574 148.641 471.324 148.51 472.052 148.335C472.78 148.161 473.471 147.935 474.126 147.658C474.796 147.382 475.422 147.047 476.004 146.654C475.567 146.392 475.094 146.166 474.585 145.977C474.075 145.788 473.529 145.649 472.947 145.562C472.379 145.46 471.775 145.409 471.135 145.409C470.902 145.409 470.654 145.416 470.392 145.431C470.145 145.446 469.89 145.475 469.628 145.518C469.366 145.547 469.104 145.591 468.842 145.649L468.405 142.658C468.827 142.541 469.271 142.461 469.737 142.418C470.217 142.359 470.64 142.33 471.004 142.33C471.79 142.33 472.51 142.418 473.165 142.592C473.835 142.767 474.447 142.985 475 143.247C475.567 143.509 476.092 143.771 476.572 144.033C477.067 144.296 477.533 144.514 477.97 144.689C478.421 144.863 478.858 144.951 479.28 144.951H480.088L480.437 147.855C479.811 147.884 479.221 148.008 478.668 148.226C478.13 148.43 477.591 148.692 477.052 149.012C476.528 149.318 475.961 149.638 475.349 149.973C474.752 150.308 474.075 150.621 473.318 150.912C472.561 151.203 471.688 151.443 470.698 151.633C469.708 151.822 468.558 151.917 467.248 151.917ZM481.535 151.917L481.754 148.881C482.962 148.881 483.93 148.874 484.658 148.859C485.401 148.845 485.976 148.816 486.383 148.772C486.805 148.714 487.118 148.648 487.322 148.576C487.526 148.488 487.701 148.394 487.846 148.292C488.021 148.161 488.167 147.986 488.283 147.768C488.414 147.535 488.516 147.229 488.589 146.85C488.661 146.472 488.698 145.999 488.698 145.431C488.698 144.718 488.632 144.121 488.501 143.64C488.385 143.145 488.21 142.774 487.977 142.527C487.759 142.279 487.49 142.156 487.169 142.156C486.936 142.156 486.718 142.236 486.514 142.396C486.31 142.541 486.143 142.745 486.012 143.007C485.881 143.269 485.815 143.568 485.815 143.902C485.815 144.092 485.866 144.259 485.968 144.405C486.07 144.55 486.23 144.659 486.449 144.732C486.667 144.805 486.944 144.841 487.278 144.841C487.599 144.841 487.934 144.805 488.283 144.732C488.647 144.645 488.982 144.528 489.287 144.383L489.375 146.981C489.142 147.142 488.873 147.287 488.567 147.418C488.261 147.549 487.934 147.651 487.584 147.724C487.249 147.782 486.907 147.811 486.558 147.811C485.786 147.811 485.117 147.709 484.549 147.506C483.996 147.287 483.566 146.938 483.261 146.457C482.955 145.977 482.802 145.322 482.802 144.492C482.802 143.851 482.911 143.218 483.129 142.592C483.348 141.952 483.661 141.377 484.068 140.867C484.476 140.343 484.956 139.928 485.51 139.622C486.063 139.302 486.674 139.142 487.344 139.142C488.334 139.142 489.149 139.433 489.79 140.015C490.445 140.583 490.925 141.355 491.231 142.33C491.551 143.291 491.711 144.361 491.711 145.54C491.711 146.574 491.558 147.476 491.253 148.248C490.947 149.005 490.583 149.602 490.161 150.039C489.812 150.403 489.411 150.708 488.96 150.956C488.509 151.203 487.955 151.4 487.3 151.545C486.66 151.676 485.866 151.771 484.92 151.829C483.988 151.887 482.86 151.917 481.535 151.917ZM487.3 137.111C486.849 137.111 486.463 136.958 486.143 136.653C485.837 136.347 485.684 135.968 485.684 135.517C485.684 135.066 485.837 134.68 486.143 134.36C486.463 134.039 486.849 133.879 487.3 133.879C487.737 133.879 488.108 134.039 488.414 134.36C488.734 134.68 488.894 135.066 488.894 135.517C488.894 135.968 488.734 136.347 488.414 136.653C488.108 136.958 487.737 137.111 487.3 137.111ZM508.967 151.917C507.933 151.917 507.038 151.786 506.281 151.523C505.538 151.247 504.963 150.81 504.556 150.213C504.148 149.602 503.915 148.787 503.857 147.768L503.464 138.967H506.543L506.914 146.698C506.943 147.294 507.038 147.753 507.198 148.073C507.373 148.379 507.62 148.59 507.94 148.707C508.261 148.808 508.676 148.859 509.185 148.859C509.738 148.859 510.131 149.005 510.364 149.296C510.597 149.573 510.714 149.922 510.714 150.344C510.714 150.796 510.561 151.174 510.255 151.48C509.964 151.771 509.534 151.917 508.967 151.917ZM504.971 149.886C503.995 150.104 503.056 150.206 502.154 150.191C501.251 150.162 500.443 150.002 499.73 149.711C499.016 149.405 498.449 148.969 498.026 148.401C497.619 147.833 497.415 147.112 497.415 146.239C497.415 145.467 497.582 144.769 497.917 144.143C498.267 143.502 498.747 142.942 499.358 142.461C499.984 141.981 500.712 141.573 501.542 141.238C502.372 140.904 503.275 140.649 504.25 140.474L504.556 143.575C503.93 143.604 503.362 143.691 502.852 143.837C502.357 143.968 501.928 144.143 501.564 144.361C501.215 144.579 500.945 144.827 500.756 145.103C500.567 145.366 500.472 145.649 500.472 145.955C500.472 146.203 500.56 146.406 500.734 146.567C500.909 146.727 501.142 146.858 501.433 146.96C501.724 147.047 502.059 147.098 502.437 147.112C502.816 147.127 503.202 147.105 503.595 147.047C504.002 146.989 504.403 146.894 504.796 146.763L504.971 149.886ZM505.036 136.718C504.614 136.718 504.25 136.573 503.944 136.281C503.653 135.976 503.507 135.619 503.507 135.211C503.507 134.789 503.653 134.425 503.944 134.12C504.25 133.814 504.614 133.661 505.036 133.661C505.444 133.661 505.793 133.814 506.084 134.12C506.375 134.425 506.521 134.789 506.521 135.211C506.521 135.619 506.375 135.976 506.084 136.281C505.793 136.573 505.444 136.718 505.036 136.718ZM501.258 136.696C500.836 136.696 500.472 136.551 500.166 136.26C499.875 135.954 499.73 135.597 499.73 135.19C499.73 134.767 499.875 134.403 500.166 134.098C500.472 133.792 500.836 133.639 501.258 133.639C501.666 133.639 502.015 133.792 502.306 134.098C502.598 134.403 502.743 134.767 502.743 135.19C502.743 135.597 502.598 135.954 502.306 136.26C502.015 136.551 501.666 136.696 501.258 136.696ZM508.959 151.917L509.178 148.859H512.3C512.606 148.859 512.875 148.845 513.108 148.816C513.341 148.772 513.531 148.707 513.676 148.619C513.836 148.532 513.953 148.423 514.025 148.292C514.098 148.161 514.135 148.008 514.135 147.833C514.135 147.658 514.04 147.382 513.851 147.003C513.676 146.61 513.29 146.137 512.693 145.584C512.373 145.293 512.024 144.987 511.645 144.667C511.281 144.332 510.932 144.019 510.597 143.728C510.262 143.422 509.986 143.153 509.767 142.92C509.549 142.687 509.44 142.519 509.44 142.418C509.44 142.199 509.454 141.959 509.483 141.697C509.513 141.435 509.556 141.195 509.614 140.976C509.687 140.758 509.782 140.598 509.898 140.496C510.146 140.263 510.51 139.994 510.99 139.688C511.485 139.368 512.075 139.026 512.759 138.662C513.443 138.283 514.207 137.89 515.052 137.482C515.911 137.06 516.828 136.638 517.803 136.216L519.048 138.88C518.247 139.229 517.49 139.571 516.777 139.906C516.064 140.227 515.394 140.547 514.768 140.867C514.157 141.173 513.589 141.479 513.065 141.784C512.555 142.075 512.104 142.367 511.711 142.658L511.995 141.042C513.232 141.988 514.215 142.84 514.943 143.597C515.685 144.354 516.238 145.031 516.602 145.628C516.966 146.21 517.206 146.734 517.323 147.2C517.439 147.651 517.498 148.051 517.498 148.401C517.498 148.75 517.41 149.129 517.235 149.536C517.075 149.929 516.777 150.308 516.34 150.672C515.918 151.036 515.321 151.334 514.55 151.567C513.778 151.8 512.788 151.917 511.58 151.917H508.959ZM518.351 156.852L517.237 154.144C518.008 153.882 518.714 153.576 519.355 153.227C520.01 152.877 520.578 152.492 521.058 152.069C521.539 151.647 521.91 151.189 522.172 150.694C522.434 150.184 522.565 149.638 522.565 149.056C522.565 148.445 522.427 147.775 522.15 147.047C521.874 146.319 521.539 145.577 521.146 144.82L524.006 143.444C524.268 143.895 524.494 144.383 524.683 144.907C524.887 145.416 525.054 145.875 525.185 146.283C525.316 146.69 525.404 146.967 525.448 147.112C525.651 147.811 525.928 148.277 526.277 148.51C526.641 148.743 527.224 148.859 528.024 148.859C528.577 148.859 528.971 149.005 529.203 149.296C529.451 149.573 529.575 149.922 529.575 150.344C529.575 150.796 529.422 151.174 529.116 151.48C528.81 151.771 528.374 151.917 527.806 151.917C527.209 151.917 526.685 151.829 526.234 151.655C525.782 151.48 525.418 151.225 525.142 150.89C524.88 150.555 524.712 150.162 524.64 149.711L525.448 150.17C525.36 150.941 525.105 151.669 524.683 152.353C524.276 153.052 523.744 153.693 523.089 154.275C522.434 154.857 521.699 155.367 520.884 155.804C520.068 156.24 519.224 156.59 518.351 156.852ZM527.832 151.917L528.05 148.859C528.531 148.859 528.924 148.823 529.23 148.75C529.535 148.663 529.783 148.481 529.972 148.204C530.176 147.913 530.35 147.484 530.496 146.916C530.656 146.334 530.831 145.547 531.02 144.558L533.859 145.082C533.815 145.3 533.764 145.555 533.706 145.846C533.648 146.137 533.597 146.436 533.553 146.741C533.51 147.032 533.488 147.294 533.488 147.527C533.488 147.935 533.619 148.263 533.881 148.51C534.143 148.743 534.638 148.859 535.366 148.859C535.73 148.859 536.043 148.823 536.305 148.75C536.581 148.663 536.814 148.481 537.003 148.204C537.207 147.913 537.382 147.469 537.528 146.872C537.688 146.261 537.841 145.438 537.986 144.405L540.869 144.863C540.81 145.198 540.752 145.555 540.694 145.933C540.636 146.312 540.585 146.661 540.541 146.981C540.497 147.302 540.475 147.564 540.475 147.768C540.475 147.957 540.526 148.139 540.628 148.313C540.745 148.474 540.949 148.605 541.24 148.707C541.545 148.808 541.975 148.859 542.528 148.859C542.921 148.859 543.256 148.808 543.533 148.707C543.824 148.605 544.042 148.437 544.188 148.204C544.348 147.971 544.428 147.666 544.428 147.287C544.428 146.749 544.304 146.042 544.057 145.169C543.809 144.296 543.518 143.378 543.183 142.418L546.262 141.5C546.495 142.126 546.699 142.796 546.874 143.509C547.063 144.208 547.208 144.892 547.31 145.562C547.427 146.217 547.485 146.792 547.485 147.287C547.485 148.03 547.369 148.692 547.136 149.274C546.903 149.842 546.575 150.322 546.153 150.716C545.731 151.109 545.229 151.407 544.646 151.611C544.064 151.815 543.423 151.917 542.725 151.917C541.88 151.917 541.189 151.836 540.65 151.676C540.112 151.502 539.697 151.218 539.405 150.825C539.129 150.417 538.947 149.864 538.86 149.165H539.602C539.296 150.024 538.954 150.65 538.576 151.043C538.197 151.422 537.746 151.662 537.222 151.764C536.712 151.866 536.072 151.917 535.3 151.917C534.82 151.917 534.325 151.866 533.815 151.764C533.32 151.647 532.876 151.385 532.483 150.978C532.09 150.57 531.799 149.937 531.61 149.078L532.789 149.034C532.483 149.893 532.083 150.526 531.588 150.934C531.107 151.342 530.554 151.611 529.928 151.742C529.302 151.858 528.604 151.917 527.832 151.917ZM539.253 138.4C538.889 138.4 538.568 138.261 538.292 137.985C538.03 137.708 537.899 137.381 537.899 137.002C537.899 136.624 538.03 136.303 538.292 136.041C538.568 135.779 538.889 135.648 539.253 135.648C539.631 135.648 539.951 135.779 540.213 136.041C540.475 136.303 540.606 136.624 540.606 137.002C540.606 137.381 540.475 137.708 540.213 137.985C539.951 138.261 539.631 138.4 539.253 138.4ZM537.506 141.282C537.142 141.282 536.821 141.144 536.545 140.867C536.283 140.591 536.152 140.263 536.152 139.884C536.152 139.506 536.283 139.186 536.545 138.924C536.821 138.662 537.142 138.531 537.506 138.531C537.884 138.531 538.204 138.662 538.466 138.924C538.729 139.186 538.86 139.506 538.86 139.884C538.86 140.263 538.729 140.591 538.466 140.867C538.204 141.144 537.884 141.282 537.506 141.282ZM540.89 141.282C540.526 141.282 540.206 141.144 539.93 140.867C539.668 140.591 539.536 140.263 539.536 139.884C539.536 139.506 539.668 139.186 539.93 138.924C540.206 138.662 540.526 138.531 540.89 138.531C541.269 138.531 541.589 138.662 541.851 138.924C542.113 139.186 542.244 139.506 542.244 139.884C542.244 140.263 542.113 140.591 541.851 140.867C541.589 141.144 541.269 141.282 540.89 141.282Z" fill="url(#paint3_linear_252_532)"/>
<defs>
<filter id="filter0_d_252_532" x="0.8" y="9.8" width="162.4" height="161.4" filterUnits="userSpaceOnUse" color-interpolation-filters="sRGB">
<feFlood flood-opacity="0" result="BackgroundImageFix"/>
<feColorMatrix in="SourceAlpha" type="matrix" values="0 0 0 0 0 0 0 0 0 0 0 0 0 0 0 0 0 0 127 0" result="hardAlpha"/>
<feOffset dx="-4" dy="4"/>
<feGaussianBlur stdDeviation="3.6"/>
<feComposite in2="hardAlpha" operator="out"/>
<feColorMatrix type="matrix" values="0 0 0 0 0 0 0 0 0 0 0 0 0 0 0 0 0 0 0.25 0"/>
<feBlend mode="normal" in2="BackgroundImageFix" result="effect1_dropShadow_252_532"/>
<feBlend mode="normal" in="SourceGraphic" in2="effect1_dropShadow_252_532" result="shape"/>
</filter>
<radialGradient id="paint0_angular_252_532" cx="0" cy="0" r="1" gradientUnits="userSpaceOnUse" gradientTransform="translate(86 86.5) rotate(-24.8272) scale(49.7924 52.4806)">
<stop stop-color="#0F345D"/>
<stop offset="0.251667" stop-color="#0062A1"/>
<stop offset="0.506098" stop-color="#32AB8E"/>
<stop offset="0.754183" stop-color="#44A63F"/>
<stop offset="1" stop-color="#8DB620"/>
</radialGradient>
<linearGradient id="paint1_linear_252_532" x1="286.621" y1="75.5687" x2="330.84" y2="-59.5305" gradientUnits="userSpaceOnUse">
<stop stop-color="#0F345D"/>
<stop offset="0.251667" stop-color="#0062A1"/>
<stop offset="0.506098" stop-color="#32AB8E"/>
<stop offset="0.754183" stop-color="#44A63F"/>
<stop offset="1" stop-color="#8DB620"/>
</linearGradient>
<linearGradient id="paint2_linear_252_532" x1="324.015" y1="117.813" x2="325.783" y2="87.4084" gradientUnits="userSpaceOnUse">
<stop stop-color="#0F345D"/>
<stop offset="0.251667" stop-color="#0062A1"/>
<stop offset="0.506098" stop-color="#32AB8E"/>
<stop offset="0.754183" stop-color="#44A63F"/>
<stop offset="1" stop-color="#8DB620"/>
</linearGradient>
<linearGradient id="paint3_linear_252_532" x1="268.81" y1="151.998" x2="275.066" y2="108.986" gradientUnits="userSpaceOnUse">
<stop stop-color="#0F345D"/>
<stop offset="0.251667" stop-color="#0062A1"/>
<stop offset="0.506098" stop-color="#32AB8E"/>
<stop offset="0.754183" stop-color="#44A63F"/>
<stop offset="1" stop-color="#8DB620"/>
</linearGradient>
</defs>
</svg>
